%TF.GenerationSoftware,KiCad,Pcbnew,(5.1.6)-1*%
%TF.CreationDate,2020-11-14T18:00:02-05:00*%
%TF.ProjectId,F0DisplayBoard,46304469-7370-46c6-9179-426f6172642e,rev?*%
%TF.SameCoordinates,Original*%
%TF.FileFunction,Legend,Top*%
%TF.FilePolarity,Positive*%
%FSLAX46Y46*%
G04 Gerber Fmt 4.6, Leading zero omitted, Abs format (unit mm)*
G04 Created by KiCad (PCBNEW (5.1.6)-1) date 2020-11-14 18:00:02*
%MOMM*%
%LPD*%
G01*
G04 APERTURE LIST*
%ADD10C,0.190500*%
%ADD11C,0.300000*%
%ADD12C,0.120000*%
%ADD13C,0.076200*%
%ADD14C,0.088900*%
%ADD15C,0.250000*%
%ADD16C,0.200000*%
%ADD17C,0.152400*%
%ADD18C,0.127000*%
%ADD19C,0.100000*%
%ADD20C,0.150000*%
%ADD21C,0.254000*%
%ADD22C,0.015000*%
%ADD23C,0.050800*%
G04 APERTURE END LIST*
D10*
X149152428Y-132011964D02*
X148898428Y-131649107D01*
X148717000Y-132011964D02*
X148717000Y-131249964D01*
X149007285Y-131249964D01*
X149079857Y-131286250D01*
X149116142Y-131322535D01*
X149152428Y-131395107D01*
X149152428Y-131503964D01*
X149116142Y-131576535D01*
X149079857Y-131612821D01*
X149007285Y-131649107D01*
X148717000Y-131649107D01*
X149587857Y-132011964D02*
X149515285Y-131975678D01*
X149479000Y-131939392D01*
X149442714Y-131866821D01*
X149442714Y-131649107D01*
X149479000Y-131576535D01*
X149515285Y-131540250D01*
X149587857Y-131503964D01*
X149696714Y-131503964D01*
X149769285Y-131540250D01*
X149805571Y-131576535D01*
X149841857Y-131649107D01*
X149841857Y-131866821D01*
X149805571Y-131939392D01*
X149769285Y-131975678D01*
X149696714Y-132011964D01*
X149587857Y-132011964D01*
X150059571Y-131503964D02*
X150349857Y-131503964D01*
X150168428Y-131249964D02*
X150168428Y-131903107D01*
X150204714Y-131975678D01*
X150277285Y-132011964D01*
X150349857Y-132011964D01*
X150930428Y-132011964D02*
X150930428Y-131612821D01*
X150894142Y-131540250D01*
X150821571Y-131503964D01*
X150676428Y-131503964D01*
X150603857Y-131540250D01*
X150930428Y-131975678D02*
X150857857Y-132011964D01*
X150676428Y-132011964D01*
X150603857Y-131975678D01*
X150567571Y-131903107D01*
X150567571Y-131830535D01*
X150603857Y-131757964D01*
X150676428Y-131721678D01*
X150857857Y-131721678D01*
X150930428Y-131685392D01*
X151293285Y-132011964D02*
X151293285Y-131503964D01*
X151293285Y-131649107D02*
X151329571Y-131576535D01*
X151365857Y-131540250D01*
X151438428Y-131503964D01*
X151511000Y-131503964D01*
X151692428Y-131503964D02*
X151873857Y-132011964D01*
X152055285Y-131503964D02*
X151873857Y-132011964D01*
X151801285Y-132193392D01*
X151765000Y-132229678D01*
X151692428Y-132265964D01*
X152926142Y-131612821D02*
X153180142Y-131612821D01*
X153289000Y-132011964D02*
X152926142Y-132011964D01*
X152926142Y-131249964D01*
X153289000Y-131249964D01*
X153615571Y-131503964D02*
X153615571Y-132011964D01*
X153615571Y-131576535D02*
X153651857Y-131540250D01*
X153724428Y-131503964D01*
X153833285Y-131503964D01*
X153905857Y-131540250D01*
X153942142Y-131612821D01*
X153942142Y-132011964D01*
X154631571Y-131975678D02*
X154559000Y-132011964D01*
X154413857Y-132011964D01*
X154341285Y-131975678D01*
X154305000Y-131939392D01*
X154268714Y-131866821D01*
X154268714Y-131649107D01*
X154305000Y-131576535D01*
X154341285Y-131540250D01*
X154413857Y-131503964D01*
X154559000Y-131503964D01*
X154631571Y-131540250D01*
X155067000Y-132011964D02*
X154994428Y-131975678D01*
X154958142Y-131939392D01*
X154921857Y-131866821D01*
X154921857Y-131649107D01*
X154958142Y-131576535D01*
X154994428Y-131540250D01*
X155067000Y-131503964D01*
X155175857Y-131503964D01*
X155248428Y-131540250D01*
X155284714Y-131576535D01*
X155321000Y-131649107D01*
X155321000Y-131866821D01*
X155284714Y-131939392D01*
X155248428Y-131975678D01*
X155175857Y-132011964D01*
X155067000Y-132011964D01*
X155974142Y-132011964D02*
X155974142Y-131249964D01*
X155974142Y-131975678D02*
X155901571Y-132011964D01*
X155756428Y-132011964D01*
X155683857Y-131975678D01*
X155647571Y-131939392D01*
X155611285Y-131866821D01*
X155611285Y-131649107D01*
X155647571Y-131576535D01*
X155683857Y-131540250D01*
X155756428Y-131503964D01*
X155901571Y-131503964D01*
X155974142Y-131540250D01*
X156627285Y-131975678D02*
X156554714Y-132011964D01*
X156409571Y-132011964D01*
X156337000Y-131975678D01*
X156300714Y-131903107D01*
X156300714Y-131612821D01*
X156337000Y-131540250D01*
X156409571Y-131503964D01*
X156554714Y-131503964D01*
X156627285Y-131540250D01*
X156663571Y-131612821D01*
X156663571Y-131685392D01*
X156300714Y-131757964D01*
X156990142Y-132011964D02*
X156990142Y-131503964D01*
X156990142Y-131649107D02*
X157026428Y-131576535D01*
X157062714Y-131540250D01*
X157135285Y-131503964D01*
X157207857Y-131503964D01*
X151111857Y-133345464D02*
X151111857Y-132583464D01*
X151111857Y-132946321D02*
X151547285Y-132946321D01*
X151547285Y-133345464D02*
X151547285Y-132583464D01*
X152200428Y-133309178D02*
X152127857Y-133345464D01*
X151982714Y-133345464D01*
X151910142Y-133309178D01*
X151873857Y-133236607D01*
X151873857Y-132946321D01*
X151910142Y-132873750D01*
X151982714Y-132837464D01*
X152127857Y-132837464D01*
X152200428Y-132873750D01*
X152236714Y-132946321D01*
X152236714Y-133018892D01*
X151873857Y-133091464D01*
X152889857Y-133345464D02*
X152889857Y-132946321D01*
X152853571Y-132873750D01*
X152781000Y-132837464D01*
X152635857Y-132837464D01*
X152563285Y-132873750D01*
X152889857Y-133309178D02*
X152817285Y-133345464D01*
X152635857Y-133345464D01*
X152563285Y-133309178D01*
X152527000Y-133236607D01*
X152527000Y-133164035D01*
X152563285Y-133091464D01*
X152635857Y-133055178D01*
X152817285Y-133055178D01*
X152889857Y-133018892D01*
X153579285Y-133345464D02*
X153579285Y-132583464D01*
X153579285Y-133309178D02*
X153506714Y-133345464D01*
X153361571Y-133345464D01*
X153289000Y-133309178D01*
X153252714Y-133272892D01*
X153216428Y-133200321D01*
X153216428Y-132982607D01*
X153252714Y-132910035D01*
X153289000Y-132873750D01*
X153361571Y-132837464D01*
X153506714Y-132837464D01*
X153579285Y-132873750D01*
X154232428Y-133309178D02*
X154159857Y-133345464D01*
X154014714Y-133345464D01*
X153942142Y-133309178D01*
X153905857Y-133236607D01*
X153905857Y-132946321D01*
X153942142Y-132873750D01*
X154014714Y-132837464D01*
X154159857Y-132837464D01*
X154232428Y-132873750D01*
X154268714Y-132946321D01*
X154268714Y-133018892D01*
X153905857Y-133091464D01*
X154595285Y-133345464D02*
X154595285Y-132837464D01*
X154595285Y-132982607D02*
X154631571Y-132910035D01*
X154667857Y-132873750D01*
X154740428Y-132837464D01*
X154813000Y-132837464D01*
D11*
X149904142Y-67729571D02*
X149904142Y-66229571D01*
X150475571Y-66229571D01*
X150618428Y-66301000D01*
X150689857Y-66372428D01*
X150761285Y-66515285D01*
X150761285Y-66729571D01*
X150689857Y-66872428D01*
X150618428Y-66943857D01*
X150475571Y-67015285D01*
X149904142Y-67015285D01*
X152261285Y-67729571D02*
X151761285Y-67015285D01*
X151404142Y-67729571D02*
X151404142Y-66229571D01*
X151975571Y-66229571D01*
X152118428Y-66301000D01*
X152189857Y-66372428D01*
X152261285Y-66515285D01*
X152261285Y-66729571D01*
X152189857Y-66872428D01*
X152118428Y-66943857D01*
X151975571Y-67015285D01*
X151404142Y-67015285D01*
X153189857Y-66229571D02*
X153475571Y-66229571D01*
X153618428Y-66301000D01*
X153761285Y-66443857D01*
X153832714Y-66729571D01*
X153832714Y-67229571D01*
X153761285Y-67515285D01*
X153618428Y-67658142D01*
X153475571Y-67729571D01*
X153189857Y-67729571D01*
X153047000Y-67658142D01*
X152904142Y-67515285D01*
X152832714Y-67229571D01*
X152832714Y-66729571D01*
X152904142Y-66443857D01*
X153047000Y-66301000D01*
X153189857Y-66229571D01*
X155261285Y-66301000D02*
X155118428Y-66229571D01*
X154904142Y-66229571D01*
X154689857Y-66301000D01*
X154547000Y-66443857D01*
X154475571Y-66586714D01*
X154404142Y-66872428D01*
X154404142Y-67086714D01*
X154475571Y-67372428D01*
X154547000Y-67515285D01*
X154689857Y-67658142D01*
X154904142Y-67729571D01*
X155047000Y-67729571D01*
X155261285Y-67658142D01*
X155332714Y-67586714D01*
X155332714Y-67086714D01*
X155047000Y-67086714D01*
X156832714Y-67729571D02*
X156332714Y-67015285D01*
X155975571Y-67729571D02*
X155975571Y-66229571D01*
X156547000Y-66229571D01*
X156689857Y-66301000D01*
X156761285Y-66372428D01*
X156832714Y-66515285D01*
X156832714Y-66729571D01*
X156761285Y-66872428D01*
X156689857Y-66943857D01*
X156547000Y-67015285D01*
X155975571Y-67015285D01*
X157404142Y-67301000D02*
X158118428Y-67301000D01*
X157261285Y-67729571D02*
X157761285Y-66229571D01*
X158261285Y-67729571D01*
X158761285Y-67729571D02*
X158761285Y-66229571D01*
X159261285Y-67301000D01*
X159761285Y-66229571D01*
X159761285Y-67729571D01*
X160475571Y-67729571D02*
X160475571Y-66229571D01*
X160975571Y-67301000D01*
X161475571Y-66229571D01*
X161475571Y-67729571D01*
X162189857Y-67729571D02*
X162189857Y-66229571D01*
X162904142Y-67729571D02*
X162904142Y-66229571D01*
X163761285Y-67729571D01*
X163761285Y-66229571D01*
X165261285Y-66301000D02*
X165118428Y-66229571D01*
X164904142Y-66229571D01*
X164689857Y-66301000D01*
X164547000Y-66443857D01*
X164475571Y-66586714D01*
X164404142Y-66872428D01*
X164404142Y-67086714D01*
X164475571Y-67372428D01*
X164547000Y-67515285D01*
X164689857Y-67658142D01*
X164904142Y-67729571D01*
X165047000Y-67729571D01*
X165261285Y-67658142D01*
X165332714Y-67586714D01*
X165332714Y-67086714D01*
X165047000Y-67086714D01*
X149904142Y-70279571D02*
X149904142Y-68779571D01*
X149904142Y-69493857D02*
X150761285Y-69493857D01*
X150761285Y-70279571D02*
X150761285Y-68779571D01*
X151475571Y-69493857D02*
X151975571Y-69493857D01*
X152189857Y-70279571D02*
X151475571Y-70279571D01*
X151475571Y-68779571D01*
X152189857Y-68779571D01*
X152761285Y-69851000D02*
X153475571Y-69851000D01*
X152618428Y-70279571D02*
X153118428Y-68779571D01*
X153618428Y-70279571D01*
X154118428Y-70279571D02*
X154118428Y-68779571D01*
X154475571Y-68779571D01*
X154689857Y-68851000D01*
X154832714Y-68993857D01*
X154904142Y-69136714D01*
X154975571Y-69422428D01*
X154975571Y-69636714D01*
X154904142Y-69922428D01*
X154832714Y-70065285D01*
X154689857Y-70208142D01*
X154475571Y-70279571D01*
X154118428Y-70279571D01*
X155618428Y-69493857D02*
X156118428Y-69493857D01*
X156332714Y-70279571D02*
X155618428Y-70279571D01*
X155618428Y-68779571D01*
X156332714Y-68779571D01*
X157832714Y-70279571D02*
X157332714Y-69565285D01*
X156975571Y-70279571D02*
X156975571Y-68779571D01*
X157547000Y-68779571D01*
X157689857Y-68851000D01*
X157761285Y-68922428D01*
X157832714Y-69065285D01*
X157832714Y-69279571D01*
X157761285Y-69422428D01*
X157689857Y-69493857D01*
X157547000Y-69565285D01*
X156975571Y-69565285D01*
X100243000Y-93486857D02*
X99743000Y-93486857D01*
X99743000Y-94272571D02*
X99743000Y-92772571D01*
X100457285Y-92772571D01*
X100814428Y-92772571D02*
X101671571Y-92772571D01*
X101243000Y-94272571D02*
X101243000Y-92772571D01*
X102100142Y-92915428D02*
X102171571Y-92844000D01*
X102314428Y-92772571D01*
X102671571Y-92772571D01*
X102814428Y-92844000D01*
X102885857Y-92915428D01*
X102957285Y-93058285D01*
X102957285Y-93201142D01*
X102885857Y-93415428D01*
X102028714Y-94272571D01*
X102957285Y-94272571D01*
X103457285Y-92772571D02*
X104385857Y-92772571D01*
X103885857Y-93344000D01*
X104100142Y-93344000D01*
X104243000Y-93415428D01*
X104314428Y-93486857D01*
X104385857Y-93629714D01*
X104385857Y-93986857D01*
X104314428Y-94129714D01*
X104243000Y-94201142D01*
X104100142Y-94272571D01*
X103671571Y-94272571D01*
X103528714Y-94201142D01*
X103457285Y-94129714D01*
X104957285Y-92915428D02*
X105028714Y-92844000D01*
X105171571Y-92772571D01*
X105528714Y-92772571D01*
X105671571Y-92844000D01*
X105743000Y-92915428D01*
X105814428Y-93058285D01*
X105814428Y-93201142D01*
X105743000Y-93415428D01*
X104885857Y-94272571D01*
X105814428Y-94272571D01*
X100350142Y-95322571D02*
X100350142Y-96536857D01*
X100421571Y-96679714D01*
X100493000Y-96751142D01*
X100635857Y-96822571D01*
X100921571Y-96822571D01*
X101064428Y-96751142D01*
X101135857Y-96679714D01*
X101207285Y-96536857D01*
X101207285Y-95322571D01*
X101850142Y-96394000D02*
X102564428Y-96394000D01*
X101707285Y-96822571D02*
X102207285Y-95322571D01*
X102707285Y-96822571D01*
X104064428Y-96822571D02*
X103564428Y-96108285D01*
X103207285Y-96822571D02*
X103207285Y-95322571D01*
X103778714Y-95322571D01*
X103921571Y-95394000D01*
X103993000Y-95465428D01*
X104064428Y-95608285D01*
X104064428Y-95822571D01*
X103993000Y-95965428D01*
X103921571Y-96036857D01*
X103778714Y-96108285D01*
X103207285Y-96108285D01*
X104493000Y-95322571D02*
X105350142Y-95322571D01*
X104921571Y-96822571D02*
X104921571Y-95322571D01*
D12*
X109220000Y-93980000D02*
X109220000Y-101600000D01*
X109220000Y-101600000D02*
X110236000Y-101600000D01*
X110236000Y-93980000D02*
X109220000Y-93980000D01*
D11*
X117288571Y-103675571D02*
X116788571Y-102961285D01*
X116431428Y-103675571D02*
X116431428Y-102175571D01*
X117002857Y-102175571D01*
X117145714Y-102247000D01*
X117217142Y-102318428D01*
X117288571Y-102461285D01*
X117288571Y-102675571D01*
X117217142Y-102818428D01*
X117145714Y-102889857D01*
X117002857Y-102961285D01*
X116431428Y-102961285D01*
X117860000Y-103604142D02*
X118074285Y-103675571D01*
X118431428Y-103675571D01*
X118574285Y-103604142D01*
X118645714Y-103532714D01*
X118717142Y-103389857D01*
X118717142Y-103247000D01*
X118645714Y-103104142D01*
X118574285Y-103032714D01*
X118431428Y-102961285D01*
X118145714Y-102889857D01*
X118002857Y-102818428D01*
X117931428Y-102747000D01*
X117860000Y-102604142D01*
X117860000Y-102461285D01*
X117931428Y-102318428D01*
X118002857Y-102247000D01*
X118145714Y-102175571D01*
X118502857Y-102175571D01*
X118717142Y-102247000D01*
X119145714Y-102175571D02*
X120002857Y-102175571D01*
X119574285Y-103675571D02*
X119574285Y-102175571D01*
D13*
X155735261Y-126809500D02*
X155432880Y-127021166D01*
X155735261Y-127172357D02*
X155100261Y-127172357D01*
X155100261Y-126930452D01*
X155130500Y-126869976D01*
X155160738Y-126839738D01*
X155221214Y-126809500D01*
X155311928Y-126809500D01*
X155372404Y-126839738D01*
X155402642Y-126869976D01*
X155432880Y-126930452D01*
X155432880Y-127172357D01*
X155100261Y-126416404D02*
X155100261Y-126295452D01*
X155130500Y-126234976D01*
X155190976Y-126174500D01*
X155311928Y-126144261D01*
X155523595Y-126144261D01*
X155644547Y-126174500D01*
X155705023Y-126234976D01*
X155735261Y-126295452D01*
X155735261Y-126416404D01*
X155705023Y-126476880D01*
X155644547Y-126537357D01*
X155523595Y-126567595D01*
X155311928Y-126567595D01*
X155190976Y-126537357D01*
X155130500Y-126476880D01*
X155100261Y-126416404D01*
X155100261Y-125962833D02*
X155100261Y-125599976D01*
X155735261Y-125781404D02*
X155100261Y-125781404D01*
X155795738Y-125539500D02*
X155795738Y-125055690D01*
X155674785Y-124541642D02*
X155705023Y-124571880D01*
X155735261Y-124662595D01*
X155735261Y-124723071D01*
X155705023Y-124813785D01*
X155644547Y-124874261D01*
X155584071Y-124904500D01*
X155463119Y-124934738D01*
X155372404Y-124934738D01*
X155251452Y-124904500D01*
X155190976Y-124874261D01*
X155130500Y-124813785D01*
X155100261Y-124723071D01*
X155100261Y-124662595D01*
X155130500Y-124571880D01*
X155160738Y-124541642D01*
X155735261Y-124269500D02*
X155100261Y-124269500D01*
X155402642Y-124269500D02*
X155402642Y-123906642D01*
X155735261Y-123906642D02*
X155100261Y-123906642D01*
X155402642Y-123392595D02*
X155432880Y-123301880D01*
X155463119Y-123271642D01*
X155523595Y-123241404D01*
X155614309Y-123241404D01*
X155674785Y-123271642D01*
X155705023Y-123301880D01*
X155735261Y-123362357D01*
X155735261Y-123604261D01*
X155100261Y-123604261D01*
X155100261Y-123392595D01*
X155130500Y-123332119D01*
X155160738Y-123301880D01*
X155221214Y-123271642D01*
X155281690Y-123271642D01*
X155342166Y-123301880D01*
X155372404Y-123332119D01*
X155402642Y-123392595D01*
X155402642Y-123604261D01*
X153195261Y-126764142D02*
X152892880Y-126975809D01*
X153195261Y-127127000D02*
X152560261Y-127127000D01*
X152560261Y-126885095D01*
X152590500Y-126824619D01*
X152620738Y-126794380D01*
X152681214Y-126764142D01*
X152771928Y-126764142D01*
X152832404Y-126794380D01*
X152862642Y-126824619D01*
X152892880Y-126885095D01*
X152892880Y-127127000D01*
X152560261Y-126371047D02*
X152560261Y-126250095D01*
X152590500Y-126189619D01*
X152650976Y-126129142D01*
X152771928Y-126098904D01*
X152983595Y-126098904D01*
X153104547Y-126129142D01*
X153165023Y-126189619D01*
X153195261Y-126250095D01*
X153195261Y-126371047D01*
X153165023Y-126431523D01*
X153104547Y-126492000D01*
X152983595Y-126522238D01*
X152771928Y-126522238D01*
X152650976Y-126492000D01*
X152590500Y-126431523D01*
X152560261Y-126371047D01*
X152560261Y-125917476D02*
X152560261Y-125554619D01*
X153195261Y-125736047D02*
X152560261Y-125736047D01*
X153255738Y-125494142D02*
X153255738Y-125010333D01*
X153134785Y-124496285D02*
X153165023Y-124526523D01*
X153195261Y-124617238D01*
X153195261Y-124677714D01*
X153165023Y-124768428D01*
X153104547Y-124828904D01*
X153044071Y-124859142D01*
X152923119Y-124889380D01*
X152832404Y-124889380D01*
X152711452Y-124859142D01*
X152650976Y-124828904D01*
X152590500Y-124768428D01*
X152560261Y-124677714D01*
X152560261Y-124617238D01*
X152590500Y-124526523D01*
X152620738Y-124496285D01*
X153195261Y-124224142D02*
X152560261Y-124224142D01*
X152862642Y-124224142D02*
X152862642Y-123861285D01*
X153195261Y-123861285D02*
X152560261Y-123861285D01*
X153013833Y-123589142D02*
X153013833Y-123286761D01*
X153195261Y-123649619D02*
X152560261Y-123437952D01*
X153195261Y-123226285D01*
X150528261Y-126809500D02*
X150225880Y-127021166D01*
X150528261Y-127172357D02*
X149893261Y-127172357D01*
X149893261Y-126930452D01*
X149923500Y-126869976D01*
X149953738Y-126839738D01*
X150014214Y-126809500D01*
X150104928Y-126809500D01*
X150165404Y-126839738D01*
X150195642Y-126869976D01*
X150225880Y-126930452D01*
X150225880Y-127172357D01*
X149893261Y-126416404D02*
X149893261Y-126295452D01*
X149923500Y-126234976D01*
X149983976Y-126174500D01*
X150104928Y-126144261D01*
X150316595Y-126144261D01*
X150437547Y-126174500D01*
X150498023Y-126234976D01*
X150528261Y-126295452D01*
X150528261Y-126416404D01*
X150498023Y-126476880D01*
X150437547Y-126537357D01*
X150316595Y-126567595D01*
X150104928Y-126567595D01*
X149983976Y-126537357D01*
X149923500Y-126476880D01*
X149893261Y-126416404D01*
X149893261Y-125962833D02*
X149893261Y-125599976D01*
X150528261Y-125781404D02*
X149893261Y-125781404D01*
X150588738Y-125539500D02*
X150588738Y-125055690D01*
X150498023Y-124934738D02*
X150528261Y-124844023D01*
X150528261Y-124692833D01*
X150498023Y-124632357D01*
X150467785Y-124602119D01*
X150407309Y-124571880D01*
X150346833Y-124571880D01*
X150286357Y-124602119D01*
X150256119Y-124632357D01*
X150225880Y-124692833D01*
X150195642Y-124813785D01*
X150165404Y-124874261D01*
X150135166Y-124904500D01*
X150074690Y-124934738D01*
X150014214Y-124934738D01*
X149953738Y-124904500D01*
X149923500Y-124874261D01*
X149893261Y-124813785D01*
X149893261Y-124662595D01*
X149923500Y-124571880D01*
X149893261Y-124360214D02*
X150528261Y-124209023D01*
X150074690Y-124088071D01*
X150528261Y-123967119D01*
X149893261Y-123815928D01*
X150528261Y-123241404D02*
X150528261Y-123604261D01*
X150528261Y-123422833D02*
X149893261Y-123422833D01*
X149983976Y-123483309D01*
X150044452Y-123543785D01*
X150074690Y-123604261D01*
X149456019Y-85123261D02*
X149849114Y-85123261D01*
X149637447Y-85365166D01*
X149728161Y-85365166D01*
X149788638Y-85395404D01*
X149818876Y-85425642D01*
X149849114Y-85486119D01*
X149849114Y-85637309D01*
X149818876Y-85697785D01*
X149788638Y-85728023D01*
X149728161Y-85758261D01*
X149546733Y-85758261D01*
X149486257Y-85728023D01*
X149456019Y-85697785D01*
X150121257Y-85697785D02*
X150151495Y-85728023D01*
X150121257Y-85758261D01*
X150091019Y-85728023D01*
X150121257Y-85697785D01*
X150121257Y-85758261D01*
X150363161Y-85123261D02*
X150756257Y-85123261D01*
X150544590Y-85365166D01*
X150635304Y-85365166D01*
X150695780Y-85395404D01*
X150726019Y-85425642D01*
X150756257Y-85486119D01*
X150756257Y-85637309D01*
X150726019Y-85697785D01*
X150695780Y-85728023D01*
X150635304Y-85758261D01*
X150453876Y-85758261D01*
X150393400Y-85728023D01*
X150363161Y-85697785D01*
X150937685Y-85123261D02*
X151149352Y-85758261D01*
X151361019Y-85123261D01*
X149909590Y-79946500D02*
X149849114Y-79916261D01*
X149758400Y-79916261D01*
X149667685Y-79946500D01*
X149607209Y-80006976D01*
X149576971Y-80067452D01*
X149546733Y-80188404D01*
X149546733Y-80279119D01*
X149576971Y-80400071D01*
X149607209Y-80460547D01*
X149667685Y-80521023D01*
X149758400Y-80551261D01*
X149818876Y-80551261D01*
X149909590Y-80521023D01*
X149939828Y-80490785D01*
X149939828Y-80279119D01*
X149818876Y-80279119D01*
X150211971Y-80551261D02*
X150211971Y-79916261D01*
X150574828Y-80551261D01*
X150574828Y-79916261D01*
X150877209Y-80551261D02*
X150877209Y-79916261D01*
X151028400Y-79916261D01*
X151119114Y-79946500D01*
X151179590Y-80006976D01*
X151209828Y-80067452D01*
X151240066Y-80188404D01*
X151240066Y-80279119D01*
X151209828Y-80400071D01*
X151179590Y-80460547D01*
X151119114Y-80521023D01*
X151028400Y-80551261D01*
X150877209Y-80551261D01*
X149555804Y-77981023D02*
X149646519Y-78011261D01*
X149797709Y-78011261D01*
X149858185Y-77981023D01*
X149888423Y-77950785D01*
X149918661Y-77890309D01*
X149918661Y-77829833D01*
X149888423Y-77769357D01*
X149858185Y-77739119D01*
X149797709Y-77708880D01*
X149676757Y-77678642D01*
X149616280Y-77648404D01*
X149586042Y-77618166D01*
X149555804Y-77557690D01*
X149555804Y-77497214D01*
X149586042Y-77436738D01*
X149616280Y-77406500D01*
X149676757Y-77376261D01*
X149827947Y-77376261D01*
X149918661Y-77406500D01*
X150130328Y-77376261D02*
X150281519Y-78011261D01*
X150402471Y-77557690D01*
X150523423Y-78011261D01*
X150674614Y-77376261D01*
X150916519Y-78011261D02*
X150916519Y-77376261D01*
X151067709Y-77376261D01*
X151158423Y-77406500D01*
X151218900Y-77466976D01*
X151249138Y-77527452D01*
X151279376Y-77648404D01*
X151279376Y-77739119D01*
X151249138Y-77860071D01*
X151218900Y-77920547D01*
X151158423Y-77981023D01*
X151067709Y-78011261D01*
X150916519Y-78011261D01*
X151551519Y-78011261D02*
X151551519Y-77376261D01*
X151974852Y-77376261D02*
X152095804Y-77376261D01*
X152156280Y-77406500D01*
X152216757Y-77466976D01*
X152246995Y-77587928D01*
X152246995Y-77799595D01*
X152216757Y-77920547D01*
X152156280Y-77981023D01*
X152095804Y-78011261D01*
X151974852Y-78011261D01*
X151914376Y-77981023D01*
X151853900Y-77920547D01*
X151823661Y-77799595D01*
X151823661Y-77587928D01*
X151853900Y-77466976D01*
X151914376Y-77406500D01*
X151974852Y-77376261D01*
X149465090Y-83061023D02*
X149555804Y-83091261D01*
X149706995Y-83091261D01*
X149767471Y-83061023D01*
X149797709Y-83030785D01*
X149827947Y-82970309D01*
X149827947Y-82909833D01*
X149797709Y-82849357D01*
X149767471Y-82819119D01*
X149706995Y-82788880D01*
X149586042Y-82758642D01*
X149525566Y-82728404D01*
X149495328Y-82698166D01*
X149465090Y-82637690D01*
X149465090Y-82577214D01*
X149495328Y-82516738D01*
X149525566Y-82486500D01*
X149586042Y-82456261D01*
X149737233Y-82456261D01*
X149827947Y-82486500D01*
X150039614Y-82456261D02*
X150190804Y-83091261D01*
X150311757Y-82637690D01*
X150432709Y-83091261D01*
X150583900Y-82456261D01*
X151188661Y-83030785D02*
X151158423Y-83061023D01*
X151067709Y-83091261D01*
X151007233Y-83091261D01*
X150916519Y-83061023D01*
X150856042Y-83000547D01*
X150825804Y-82940071D01*
X150795566Y-82819119D01*
X150795566Y-82728404D01*
X150825804Y-82607452D01*
X150856042Y-82546976D01*
X150916519Y-82486500D01*
X151007233Y-82456261D01*
X151067709Y-82456261D01*
X151158423Y-82486500D01*
X151188661Y-82516738D01*
X151763185Y-83091261D02*
X151460804Y-83091261D01*
X151460804Y-82456261D01*
X151974852Y-83091261D02*
X151974852Y-82456261D01*
X152337709Y-83091261D02*
X152065566Y-82728404D01*
X152337709Y-82456261D02*
X151974852Y-82819119D01*
X143233019Y-84996261D02*
X143626114Y-84996261D01*
X143414447Y-85238166D01*
X143505161Y-85238166D01*
X143565638Y-85268404D01*
X143595876Y-85298642D01*
X143626114Y-85359119D01*
X143626114Y-85510309D01*
X143595876Y-85570785D01*
X143565638Y-85601023D01*
X143505161Y-85631261D01*
X143323733Y-85631261D01*
X143263257Y-85601023D01*
X143233019Y-85570785D01*
X143898257Y-85570785D02*
X143928495Y-85601023D01*
X143898257Y-85631261D01*
X143868019Y-85601023D01*
X143898257Y-85570785D01*
X143898257Y-85631261D01*
X144140161Y-84996261D02*
X144533257Y-84996261D01*
X144321590Y-85238166D01*
X144412304Y-85238166D01*
X144472780Y-85268404D01*
X144503019Y-85298642D01*
X144533257Y-85359119D01*
X144533257Y-85510309D01*
X144503019Y-85570785D01*
X144472780Y-85601023D01*
X144412304Y-85631261D01*
X144230876Y-85631261D01*
X144170400Y-85601023D01*
X144140161Y-85570785D01*
X144714685Y-84996261D02*
X144926352Y-85631261D01*
X145138019Y-84996261D01*
X143384209Y-82456261D02*
X143384209Y-82909833D01*
X143353971Y-83000547D01*
X143293495Y-83061023D01*
X143202780Y-83091261D01*
X143142304Y-83091261D01*
X143595876Y-82456261D02*
X143958733Y-82456261D01*
X143777304Y-83091261D02*
X143777304Y-82456261D01*
X144533257Y-83030785D02*
X144503019Y-83061023D01*
X144412304Y-83091261D01*
X144351828Y-83091261D01*
X144261114Y-83061023D01*
X144200638Y-83000547D01*
X144170400Y-82940071D01*
X144140161Y-82819119D01*
X144140161Y-82728404D01*
X144170400Y-82607452D01*
X144200638Y-82546976D01*
X144261114Y-82486500D01*
X144351828Y-82456261D01*
X144412304Y-82456261D01*
X144503019Y-82486500D01*
X144533257Y-82516738D01*
X144805400Y-83091261D02*
X144805400Y-82456261D01*
X145168257Y-83091261D02*
X144896114Y-82728404D01*
X145168257Y-82456261D02*
X144805400Y-82819119D01*
X143686590Y-80073500D02*
X143626114Y-80043261D01*
X143535400Y-80043261D01*
X143444685Y-80073500D01*
X143384209Y-80133976D01*
X143353971Y-80194452D01*
X143323733Y-80315404D01*
X143323733Y-80406119D01*
X143353971Y-80527071D01*
X143384209Y-80587547D01*
X143444685Y-80648023D01*
X143535400Y-80678261D01*
X143595876Y-80678261D01*
X143686590Y-80648023D01*
X143716828Y-80617785D01*
X143716828Y-80406119D01*
X143595876Y-80406119D01*
X143988971Y-80678261D02*
X143988971Y-80043261D01*
X144351828Y-80678261D01*
X144351828Y-80043261D01*
X144654209Y-80678261D02*
X144654209Y-80043261D01*
X144805400Y-80043261D01*
X144896114Y-80073500D01*
X144956590Y-80133976D01*
X144986828Y-80194452D01*
X145017066Y-80315404D01*
X145017066Y-80406119D01*
X144986828Y-80527071D01*
X144956590Y-80587547D01*
X144896114Y-80648023D01*
X144805400Y-80678261D01*
X144654209Y-80678261D01*
X143353971Y-77376261D02*
X143353971Y-77829833D01*
X143323733Y-77920547D01*
X143263257Y-77981023D01*
X143172542Y-78011261D01*
X143112066Y-78011261D01*
X143565638Y-77376261D02*
X143928495Y-77376261D01*
X143747066Y-78011261D02*
X143747066Y-77376261D01*
X144140161Y-78011261D02*
X144140161Y-77376261D01*
X144351828Y-77829833D01*
X144563495Y-77376261D01*
X144563495Y-78011261D01*
X144835638Y-77981023D02*
X144926352Y-78011261D01*
X145077542Y-78011261D01*
X145138019Y-77981023D01*
X145168257Y-77950785D01*
X145198495Y-77890309D01*
X145198495Y-77829833D01*
X145168257Y-77769357D01*
X145138019Y-77739119D01*
X145077542Y-77708880D01*
X144956590Y-77678642D01*
X144896114Y-77648404D01*
X144865876Y-77618166D01*
X144835638Y-77557690D01*
X144835638Y-77497214D01*
X144865876Y-77436738D01*
X144896114Y-77406500D01*
X144956590Y-77376261D01*
X145107780Y-77376261D01*
X145198495Y-77406500D01*
X142631280Y-75471261D02*
X142631280Y-74836261D01*
X142994138Y-75471261D01*
X142994138Y-74836261D01*
X143477947Y-74836261D02*
X143477947Y-75289833D01*
X143447709Y-75380547D01*
X143387233Y-75441023D01*
X143296519Y-75471261D01*
X143236042Y-75471261D01*
X144143185Y-75471261D02*
X143931519Y-75168880D01*
X143780328Y-75471261D02*
X143780328Y-74836261D01*
X144022233Y-74836261D01*
X144082709Y-74866500D01*
X144112947Y-74896738D01*
X144143185Y-74957214D01*
X144143185Y-75047928D01*
X144112947Y-75108404D01*
X144082709Y-75138642D01*
X144022233Y-75168880D01*
X143780328Y-75168880D01*
X144385090Y-75441023D02*
X144475804Y-75471261D01*
X144626995Y-75471261D01*
X144687471Y-75441023D01*
X144717709Y-75410785D01*
X144747947Y-75350309D01*
X144747947Y-75289833D01*
X144717709Y-75229357D01*
X144687471Y-75199119D01*
X144626995Y-75168880D01*
X144506042Y-75138642D01*
X144445566Y-75108404D01*
X144415328Y-75078166D01*
X144385090Y-75017690D01*
X144385090Y-74957214D01*
X144415328Y-74896738D01*
X144445566Y-74866500D01*
X144506042Y-74836261D01*
X144657233Y-74836261D01*
X144747947Y-74866500D01*
X144929376Y-74836261D02*
X145292233Y-74836261D01*
X145110804Y-75471261D02*
X145110804Y-74836261D01*
X143369090Y-72296261D02*
X143369090Y-72749833D01*
X143338852Y-72840547D01*
X143278376Y-72901023D01*
X143187661Y-72931261D01*
X143127185Y-72931261D01*
X143580757Y-72296261D02*
X143943614Y-72296261D01*
X143762185Y-72931261D02*
X143762185Y-72296261D01*
X144155280Y-72931261D02*
X144155280Y-72296261D01*
X144306471Y-72296261D01*
X144397185Y-72326500D01*
X144457661Y-72386976D01*
X144487900Y-72447452D01*
X144518138Y-72568404D01*
X144518138Y-72659119D01*
X144487900Y-72780071D01*
X144457661Y-72840547D01*
X144397185Y-72901023D01*
X144306471Y-72931261D01*
X144155280Y-72931261D01*
X144911233Y-72296261D02*
X145032185Y-72296261D01*
X145092661Y-72326500D01*
X145153138Y-72386976D01*
X145183376Y-72507928D01*
X145183376Y-72719595D01*
X145153138Y-72840547D01*
X145092661Y-72901023D01*
X145032185Y-72931261D01*
X144911233Y-72931261D01*
X144850757Y-72901023D01*
X144790280Y-72840547D01*
X144760042Y-72719595D01*
X144760042Y-72507928D01*
X144790280Y-72386976D01*
X144850757Y-72326500D01*
X144911233Y-72296261D01*
X143677519Y-69756261D02*
X143677519Y-70209833D01*
X143647280Y-70300547D01*
X143586804Y-70361023D01*
X143496090Y-70391261D01*
X143435614Y-70391261D01*
X143889185Y-69756261D02*
X144252042Y-69756261D01*
X144070614Y-70391261D02*
X144070614Y-69756261D01*
X144463709Y-70391261D02*
X144463709Y-69756261D01*
X144614900Y-69756261D01*
X144705614Y-69786500D01*
X144766090Y-69846976D01*
X144796328Y-69907452D01*
X144826566Y-70028404D01*
X144826566Y-70119119D01*
X144796328Y-70240071D01*
X144766090Y-70300547D01*
X144705614Y-70361023D01*
X144614900Y-70391261D01*
X144463709Y-70391261D01*
X145098709Y-70391261D02*
X145098709Y-69756261D01*
X143127185Y-67851261D02*
X143127185Y-67216261D01*
X143490042Y-67851261D01*
X143490042Y-67216261D01*
X144155280Y-67851261D02*
X143943614Y-67548880D01*
X143792423Y-67851261D02*
X143792423Y-67216261D01*
X144034328Y-67216261D01*
X144094804Y-67246500D01*
X144125042Y-67276738D01*
X144155280Y-67337214D01*
X144155280Y-67427928D01*
X144125042Y-67488404D01*
X144094804Y-67518642D01*
X144034328Y-67548880D01*
X143792423Y-67548880D01*
X144397185Y-67821023D02*
X144487900Y-67851261D01*
X144639090Y-67851261D01*
X144699566Y-67821023D01*
X144729804Y-67790785D01*
X144760042Y-67730309D01*
X144760042Y-67669833D01*
X144729804Y-67609357D01*
X144699566Y-67579119D01*
X144639090Y-67548880D01*
X144518138Y-67518642D01*
X144457661Y-67488404D01*
X144427423Y-67458166D01*
X144397185Y-67397690D01*
X144397185Y-67337214D01*
X144427423Y-67276738D01*
X144457661Y-67246500D01*
X144518138Y-67216261D01*
X144669328Y-67216261D01*
X144760042Y-67246500D01*
X144941471Y-67216261D02*
X145304328Y-67216261D01*
X145122900Y-67851261D02*
X145122900Y-67216261D01*
X155862261Y-140407571D02*
X155227261Y-140407571D01*
X155227261Y-140165666D01*
X155257500Y-140105190D01*
X155287738Y-140074952D01*
X155348214Y-140044714D01*
X155438928Y-140044714D01*
X155499404Y-140074952D01*
X155529642Y-140105190D01*
X155559880Y-140165666D01*
X155559880Y-140407571D01*
X155529642Y-139560904D02*
X155559880Y-139470190D01*
X155590119Y-139439952D01*
X155650595Y-139409714D01*
X155741309Y-139409714D01*
X155801785Y-139439952D01*
X155832023Y-139470190D01*
X155862261Y-139530666D01*
X155862261Y-139772571D01*
X155227261Y-139772571D01*
X155227261Y-139560904D01*
X155257500Y-139500428D01*
X155287738Y-139470190D01*
X155348214Y-139439952D01*
X155408690Y-139439952D01*
X155469166Y-139470190D01*
X155499404Y-139500428D01*
X155529642Y-139560904D01*
X155529642Y-139772571D01*
X155862261Y-138804952D02*
X155862261Y-139167809D01*
X155862261Y-138986380D02*
X155227261Y-138986380D01*
X155317976Y-139046857D01*
X155378452Y-139107333D01*
X155408690Y-139167809D01*
X155227261Y-138230428D02*
X155227261Y-138532809D01*
X155529642Y-138563047D01*
X155499404Y-138532809D01*
X155469166Y-138472333D01*
X155469166Y-138321142D01*
X155499404Y-138260666D01*
X155529642Y-138230428D01*
X155590119Y-138200190D01*
X155741309Y-138200190D01*
X155801785Y-138230428D01*
X155832023Y-138260666D01*
X155862261Y-138321142D01*
X155862261Y-138472333D01*
X155832023Y-138532809D01*
X155801785Y-138563047D01*
X153322261Y-140407571D02*
X152687261Y-140407571D01*
X152687261Y-140165666D01*
X152717500Y-140105190D01*
X152747738Y-140074952D01*
X152808214Y-140044714D01*
X152898928Y-140044714D01*
X152959404Y-140074952D01*
X152989642Y-140105190D01*
X153019880Y-140165666D01*
X153019880Y-140407571D01*
X152989642Y-139560904D02*
X153019880Y-139470190D01*
X153050119Y-139439952D01*
X153110595Y-139409714D01*
X153201309Y-139409714D01*
X153261785Y-139439952D01*
X153292023Y-139470190D01*
X153322261Y-139530666D01*
X153322261Y-139772571D01*
X152687261Y-139772571D01*
X152687261Y-139560904D01*
X152717500Y-139500428D01*
X152747738Y-139470190D01*
X152808214Y-139439952D01*
X152868690Y-139439952D01*
X152929166Y-139470190D01*
X152959404Y-139500428D01*
X152989642Y-139560904D01*
X152989642Y-139772571D01*
X153322261Y-138804952D02*
X153322261Y-139167809D01*
X153322261Y-138986380D02*
X152687261Y-138986380D01*
X152777976Y-139046857D01*
X152838452Y-139107333D01*
X152868690Y-139167809D01*
X152898928Y-138260666D02*
X153322261Y-138260666D01*
X152657023Y-138411857D02*
X153110595Y-138563047D01*
X153110595Y-138169952D01*
X150655261Y-140407571D02*
X150020261Y-140407571D01*
X150020261Y-140165666D01*
X150050500Y-140105190D01*
X150080738Y-140074952D01*
X150141214Y-140044714D01*
X150231928Y-140044714D01*
X150292404Y-140074952D01*
X150322642Y-140105190D01*
X150352880Y-140165666D01*
X150352880Y-140407571D01*
X150322642Y-139560904D02*
X150352880Y-139470190D01*
X150383119Y-139439952D01*
X150443595Y-139409714D01*
X150534309Y-139409714D01*
X150594785Y-139439952D01*
X150625023Y-139470190D01*
X150655261Y-139530666D01*
X150655261Y-139772571D01*
X150020261Y-139772571D01*
X150020261Y-139560904D01*
X150050500Y-139500428D01*
X150080738Y-139470190D01*
X150141214Y-139439952D01*
X150201690Y-139439952D01*
X150262166Y-139470190D01*
X150292404Y-139500428D01*
X150322642Y-139560904D01*
X150322642Y-139772571D01*
X150655261Y-138804952D02*
X150655261Y-139167809D01*
X150655261Y-138986380D02*
X150020261Y-138986380D01*
X150110976Y-139046857D01*
X150171452Y-139107333D01*
X150201690Y-139167809D01*
X150020261Y-138593285D02*
X150020261Y-138200190D01*
X150262166Y-138411857D01*
X150262166Y-138321142D01*
X150292404Y-138260666D01*
X150322642Y-138230428D01*
X150383119Y-138200190D01*
X150534309Y-138200190D01*
X150594785Y-138230428D01*
X150625023Y-138260666D01*
X150655261Y-138321142D01*
X150655261Y-138502571D01*
X150625023Y-138563047D01*
X150594785Y-138593285D01*
X148242261Y-140407571D02*
X147607261Y-140407571D01*
X147607261Y-140165666D01*
X147637500Y-140105190D01*
X147667738Y-140074952D01*
X147728214Y-140044714D01*
X147818928Y-140044714D01*
X147879404Y-140074952D01*
X147909642Y-140105190D01*
X147939880Y-140165666D01*
X147939880Y-140407571D01*
X147909642Y-139560904D02*
X147939880Y-139470190D01*
X147970119Y-139439952D01*
X148030595Y-139409714D01*
X148121309Y-139409714D01*
X148181785Y-139439952D01*
X148212023Y-139470190D01*
X148242261Y-139530666D01*
X148242261Y-139772571D01*
X147607261Y-139772571D01*
X147607261Y-139560904D01*
X147637500Y-139500428D01*
X147667738Y-139470190D01*
X147728214Y-139439952D01*
X147788690Y-139439952D01*
X147849166Y-139470190D01*
X147879404Y-139500428D01*
X147909642Y-139560904D01*
X147909642Y-139772571D01*
X148242261Y-138804952D02*
X148242261Y-139167809D01*
X148242261Y-138986380D02*
X147607261Y-138986380D01*
X147697976Y-139046857D01*
X147758452Y-139107333D01*
X147788690Y-139167809D01*
X147667738Y-138563047D02*
X147637500Y-138532809D01*
X147607261Y-138472333D01*
X147607261Y-138321142D01*
X147637500Y-138260666D01*
X147667738Y-138230428D01*
X147728214Y-138200190D01*
X147788690Y-138200190D01*
X147879404Y-138230428D01*
X148242261Y-138593285D01*
X148242261Y-138200190D01*
X145575261Y-140407571D02*
X144940261Y-140407571D01*
X144940261Y-140165666D01*
X144970500Y-140105190D01*
X145000738Y-140074952D01*
X145061214Y-140044714D01*
X145151928Y-140044714D01*
X145212404Y-140074952D01*
X145242642Y-140105190D01*
X145272880Y-140165666D01*
X145272880Y-140407571D01*
X145242642Y-139560904D02*
X145272880Y-139470190D01*
X145303119Y-139439952D01*
X145363595Y-139409714D01*
X145454309Y-139409714D01*
X145514785Y-139439952D01*
X145545023Y-139470190D01*
X145575261Y-139530666D01*
X145575261Y-139772571D01*
X144940261Y-139772571D01*
X144940261Y-139560904D01*
X144970500Y-139500428D01*
X145000738Y-139470190D01*
X145061214Y-139439952D01*
X145121690Y-139439952D01*
X145182166Y-139470190D01*
X145212404Y-139500428D01*
X145242642Y-139560904D01*
X145242642Y-139772571D01*
X145575261Y-138804952D02*
X145575261Y-139167809D01*
X145575261Y-138986380D02*
X144940261Y-138986380D01*
X145030976Y-139046857D01*
X145091452Y-139107333D01*
X145121690Y-139167809D01*
X145575261Y-138200190D02*
X145575261Y-138563047D01*
X145575261Y-138381619D02*
X144940261Y-138381619D01*
X145030976Y-138442095D01*
X145091452Y-138502571D01*
X145121690Y-138563047D01*
X143035261Y-140407571D02*
X142400261Y-140407571D01*
X142400261Y-140165666D01*
X142430500Y-140105190D01*
X142460738Y-140074952D01*
X142521214Y-140044714D01*
X142611928Y-140044714D01*
X142672404Y-140074952D01*
X142702642Y-140105190D01*
X142732880Y-140165666D01*
X142732880Y-140407571D01*
X142702642Y-139560904D02*
X142732880Y-139470190D01*
X142763119Y-139439952D01*
X142823595Y-139409714D01*
X142914309Y-139409714D01*
X142974785Y-139439952D01*
X143005023Y-139470190D01*
X143035261Y-139530666D01*
X143035261Y-139772571D01*
X142400261Y-139772571D01*
X142400261Y-139560904D01*
X142430500Y-139500428D01*
X142460738Y-139470190D01*
X142521214Y-139439952D01*
X142581690Y-139439952D01*
X142642166Y-139470190D01*
X142672404Y-139500428D01*
X142702642Y-139560904D01*
X142702642Y-139772571D01*
X143035261Y-138804952D02*
X143035261Y-139167809D01*
X143035261Y-138986380D02*
X142400261Y-138986380D01*
X142490976Y-139046857D01*
X142551452Y-139107333D01*
X142581690Y-139167809D01*
X142400261Y-138411857D02*
X142400261Y-138351380D01*
X142430500Y-138290904D01*
X142460738Y-138260666D01*
X142521214Y-138230428D01*
X142642166Y-138200190D01*
X142793357Y-138200190D01*
X142914309Y-138230428D01*
X142974785Y-138260666D01*
X143005023Y-138290904D01*
X143035261Y-138351380D01*
X143035261Y-138411857D01*
X143005023Y-138472333D01*
X142974785Y-138502571D01*
X142914309Y-138532809D01*
X142793357Y-138563047D01*
X142642166Y-138563047D01*
X142521214Y-138532809D01*
X142460738Y-138502571D01*
X142430500Y-138472333D01*
X142400261Y-138411857D01*
X140495261Y-139978190D02*
X139860261Y-139978190D01*
X139860261Y-139736285D01*
X139890500Y-139675809D01*
X139920738Y-139645571D01*
X139981214Y-139615333D01*
X140071928Y-139615333D01*
X140132404Y-139645571D01*
X140162642Y-139675809D01*
X140192880Y-139736285D01*
X140192880Y-139978190D01*
X140162642Y-139131523D02*
X140192880Y-139040809D01*
X140223119Y-139010571D01*
X140283595Y-138980333D01*
X140374309Y-138980333D01*
X140434785Y-139010571D01*
X140465023Y-139040809D01*
X140495261Y-139101285D01*
X140495261Y-139343190D01*
X139860261Y-139343190D01*
X139860261Y-139131523D01*
X139890500Y-139071047D01*
X139920738Y-139040809D01*
X139981214Y-139010571D01*
X140041690Y-139010571D01*
X140102166Y-139040809D01*
X140132404Y-139071047D01*
X140162642Y-139131523D01*
X140162642Y-139343190D01*
X140495261Y-138677952D02*
X140495261Y-138557000D01*
X140465023Y-138496523D01*
X140434785Y-138466285D01*
X140344071Y-138405809D01*
X140223119Y-138375571D01*
X139981214Y-138375571D01*
X139920738Y-138405809D01*
X139890500Y-138436047D01*
X139860261Y-138496523D01*
X139860261Y-138617476D01*
X139890500Y-138677952D01*
X139920738Y-138708190D01*
X139981214Y-138738428D01*
X140132404Y-138738428D01*
X140192880Y-138708190D01*
X140223119Y-138677952D01*
X140253357Y-138617476D01*
X140253357Y-138496523D01*
X140223119Y-138436047D01*
X140192880Y-138405809D01*
X140132404Y-138375571D01*
X138082261Y-139978190D02*
X137447261Y-139978190D01*
X137447261Y-139736285D01*
X137477500Y-139675809D01*
X137507738Y-139645571D01*
X137568214Y-139615333D01*
X137658928Y-139615333D01*
X137719404Y-139645571D01*
X137749642Y-139675809D01*
X137779880Y-139736285D01*
X137779880Y-139978190D01*
X137749642Y-139131523D02*
X137779880Y-139040809D01*
X137810119Y-139010571D01*
X137870595Y-138980333D01*
X137961309Y-138980333D01*
X138021785Y-139010571D01*
X138052023Y-139040809D01*
X138082261Y-139101285D01*
X138082261Y-139343190D01*
X137447261Y-139343190D01*
X137447261Y-139131523D01*
X137477500Y-139071047D01*
X137507738Y-139040809D01*
X137568214Y-139010571D01*
X137628690Y-139010571D01*
X137689166Y-139040809D01*
X137719404Y-139071047D01*
X137749642Y-139131523D01*
X137749642Y-139343190D01*
X137719404Y-138617476D02*
X137689166Y-138677952D01*
X137658928Y-138708190D01*
X137598452Y-138738428D01*
X137568214Y-138738428D01*
X137507738Y-138708190D01*
X137477500Y-138677952D01*
X137447261Y-138617476D01*
X137447261Y-138496523D01*
X137477500Y-138436047D01*
X137507738Y-138405809D01*
X137568214Y-138375571D01*
X137598452Y-138375571D01*
X137658928Y-138405809D01*
X137689166Y-138436047D01*
X137719404Y-138496523D01*
X137719404Y-138617476D01*
X137749642Y-138677952D01*
X137779880Y-138708190D01*
X137840357Y-138738428D01*
X137961309Y-138738428D01*
X138021785Y-138708190D01*
X138052023Y-138677952D01*
X138082261Y-138617476D01*
X138082261Y-138496523D01*
X138052023Y-138436047D01*
X138021785Y-138405809D01*
X137961309Y-138375571D01*
X137840357Y-138375571D01*
X137779880Y-138405809D01*
X137749642Y-138436047D01*
X137719404Y-138496523D01*
X135415261Y-139978190D02*
X134780261Y-139978190D01*
X134780261Y-139736285D01*
X134810500Y-139675809D01*
X134840738Y-139645571D01*
X134901214Y-139615333D01*
X134991928Y-139615333D01*
X135052404Y-139645571D01*
X135082642Y-139675809D01*
X135112880Y-139736285D01*
X135112880Y-139978190D01*
X135082642Y-139131523D02*
X135112880Y-139040809D01*
X135143119Y-139010571D01*
X135203595Y-138980333D01*
X135294309Y-138980333D01*
X135354785Y-139010571D01*
X135385023Y-139040809D01*
X135415261Y-139101285D01*
X135415261Y-139343190D01*
X134780261Y-139343190D01*
X134780261Y-139131523D01*
X134810500Y-139071047D01*
X134840738Y-139040809D01*
X134901214Y-139010571D01*
X134961690Y-139010571D01*
X135022166Y-139040809D01*
X135052404Y-139071047D01*
X135082642Y-139131523D01*
X135082642Y-139343190D01*
X134780261Y-138768666D02*
X134780261Y-138345333D01*
X135415261Y-138617476D01*
X132875261Y-139978190D02*
X132240261Y-139978190D01*
X132240261Y-139736285D01*
X132270500Y-139675809D01*
X132300738Y-139645571D01*
X132361214Y-139615333D01*
X132451928Y-139615333D01*
X132512404Y-139645571D01*
X132542642Y-139675809D01*
X132572880Y-139736285D01*
X132572880Y-139978190D01*
X132542642Y-139131523D02*
X132572880Y-139040809D01*
X132603119Y-139010571D01*
X132663595Y-138980333D01*
X132754309Y-138980333D01*
X132814785Y-139010571D01*
X132845023Y-139040809D01*
X132875261Y-139101285D01*
X132875261Y-139343190D01*
X132240261Y-139343190D01*
X132240261Y-139131523D01*
X132270500Y-139071047D01*
X132300738Y-139040809D01*
X132361214Y-139010571D01*
X132421690Y-139010571D01*
X132482166Y-139040809D01*
X132512404Y-139071047D01*
X132542642Y-139131523D01*
X132542642Y-139343190D01*
X132240261Y-138436047D02*
X132240261Y-138557000D01*
X132270500Y-138617476D01*
X132300738Y-138647714D01*
X132391452Y-138708190D01*
X132512404Y-138738428D01*
X132754309Y-138738428D01*
X132814785Y-138708190D01*
X132845023Y-138677952D01*
X132875261Y-138617476D01*
X132875261Y-138496523D01*
X132845023Y-138436047D01*
X132814785Y-138405809D01*
X132754309Y-138375571D01*
X132603119Y-138375571D01*
X132542642Y-138405809D01*
X132512404Y-138436047D01*
X132482166Y-138496523D01*
X132482166Y-138617476D01*
X132512404Y-138677952D01*
X132542642Y-138708190D01*
X132603119Y-138738428D01*
X130462261Y-139978190D02*
X129827261Y-139978190D01*
X129827261Y-139736285D01*
X129857500Y-139675809D01*
X129887738Y-139645571D01*
X129948214Y-139615333D01*
X130038928Y-139615333D01*
X130099404Y-139645571D01*
X130129642Y-139675809D01*
X130159880Y-139736285D01*
X130159880Y-139978190D01*
X130129642Y-139131523D02*
X130159880Y-139040809D01*
X130190119Y-139010571D01*
X130250595Y-138980333D01*
X130341309Y-138980333D01*
X130401785Y-139010571D01*
X130432023Y-139040809D01*
X130462261Y-139101285D01*
X130462261Y-139343190D01*
X129827261Y-139343190D01*
X129827261Y-139131523D01*
X129857500Y-139071047D01*
X129887738Y-139040809D01*
X129948214Y-139010571D01*
X130008690Y-139010571D01*
X130069166Y-139040809D01*
X130099404Y-139071047D01*
X130129642Y-139131523D01*
X130129642Y-139343190D01*
X129827261Y-138405809D02*
X129827261Y-138708190D01*
X130129642Y-138738428D01*
X130099404Y-138708190D01*
X130069166Y-138647714D01*
X130069166Y-138496523D01*
X130099404Y-138436047D01*
X130129642Y-138405809D01*
X130190119Y-138375571D01*
X130341309Y-138375571D01*
X130401785Y-138405809D01*
X130432023Y-138436047D01*
X130462261Y-138496523D01*
X130462261Y-138647714D01*
X130432023Y-138708190D01*
X130401785Y-138738428D01*
X127795261Y-139978190D02*
X127160261Y-139978190D01*
X127160261Y-139736285D01*
X127190500Y-139675809D01*
X127220738Y-139645571D01*
X127281214Y-139615333D01*
X127371928Y-139615333D01*
X127432404Y-139645571D01*
X127462642Y-139675809D01*
X127492880Y-139736285D01*
X127492880Y-139978190D01*
X127462642Y-139131523D02*
X127492880Y-139040809D01*
X127523119Y-139010571D01*
X127583595Y-138980333D01*
X127674309Y-138980333D01*
X127734785Y-139010571D01*
X127765023Y-139040809D01*
X127795261Y-139101285D01*
X127795261Y-139343190D01*
X127160261Y-139343190D01*
X127160261Y-139131523D01*
X127190500Y-139071047D01*
X127220738Y-139040809D01*
X127281214Y-139010571D01*
X127341690Y-139010571D01*
X127402166Y-139040809D01*
X127432404Y-139071047D01*
X127462642Y-139131523D01*
X127462642Y-139343190D01*
X127371928Y-138436047D02*
X127795261Y-138436047D01*
X127130023Y-138587238D02*
X127583595Y-138738428D01*
X127583595Y-138345333D01*
X125255261Y-139978190D02*
X124620261Y-139978190D01*
X124620261Y-139736285D01*
X124650500Y-139675809D01*
X124680738Y-139645571D01*
X124741214Y-139615333D01*
X124831928Y-139615333D01*
X124892404Y-139645571D01*
X124922642Y-139675809D01*
X124952880Y-139736285D01*
X124952880Y-139978190D01*
X124922642Y-139131523D02*
X124952880Y-139040809D01*
X124983119Y-139010571D01*
X125043595Y-138980333D01*
X125134309Y-138980333D01*
X125194785Y-139010571D01*
X125225023Y-139040809D01*
X125255261Y-139101285D01*
X125255261Y-139343190D01*
X124620261Y-139343190D01*
X124620261Y-139131523D01*
X124650500Y-139071047D01*
X124680738Y-139040809D01*
X124741214Y-139010571D01*
X124801690Y-139010571D01*
X124862166Y-139040809D01*
X124892404Y-139071047D01*
X124922642Y-139131523D01*
X124922642Y-139343190D01*
X124620261Y-138768666D02*
X124620261Y-138375571D01*
X124862166Y-138587238D01*
X124862166Y-138496523D01*
X124892404Y-138436047D01*
X124922642Y-138405809D01*
X124983119Y-138375571D01*
X125134309Y-138375571D01*
X125194785Y-138405809D01*
X125225023Y-138436047D01*
X125255261Y-138496523D01*
X125255261Y-138677952D01*
X125225023Y-138738428D01*
X125194785Y-138768666D01*
X122715261Y-139978190D02*
X122080261Y-139978190D01*
X122080261Y-139736285D01*
X122110500Y-139675809D01*
X122140738Y-139645571D01*
X122201214Y-139615333D01*
X122291928Y-139615333D01*
X122352404Y-139645571D01*
X122382642Y-139675809D01*
X122412880Y-139736285D01*
X122412880Y-139978190D01*
X122382642Y-139131523D02*
X122412880Y-139040809D01*
X122443119Y-139010571D01*
X122503595Y-138980333D01*
X122594309Y-138980333D01*
X122654785Y-139010571D01*
X122685023Y-139040809D01*
X122715261Y-139101285D01*
X122715261Y-139343190D01*
X122080261Y-139343190D01*
X122080261Y-139131523D01*
X122110500Y-139071047D01*
X122140738Y-139040809D01*
X122201214Y-139010571D01*
X122261690Y-139010571D01*
X122322166Y-139040809D01*
X122352404Y-139071047D01*
X122382642Y-139131523D01*
X122382642Y-139343190D01*
X122140738Y-138738428D02*
X122110500Y-138708190D01*
X122080261Y-138647714D01*
X122080261Y-138496523D01*
X122110500Y-138436047D01*
X122140738Y-138405809D01*
X122201214Y-138375571D01*
X122261690Y-138375571D01*
X122352404Y-138405809D01*
X122715261Y-138768666D01*
X122715261Y-138375571D01*
X120175261Y-139978190D02*
X119540261Y-139978190D01*
X119540261Y-139736285D01*
X119570500Y-139675809D01*
X119600738Y-139645571D01*
X119661214Y-139615333D01*
X119751928Y-139615333D01*
X119812404Y-139645571D01*
X119842642Y-139675809D01*
X119872880Y-139736285D01*
X119872880Y-139978190D01*
X119842642Y-139131523D02*
X119872880Y-139040809D01*
X119903119Y-139010571D01*
X119963595Y-138980333D01*
X120054309Y-138980333D01*
X120114785Y-139010571D01*
X120145023Y-139040809D01*
X120175261Y-139101285D01*
X120175261Y-139343190D01*
X119540261Y-139343190D01*
X119540261Y-139131523D01*
X119570500Y-139071047D01*
X119600738Y-139040809D01*
X119661214Y-139010571D01*
X119721690Y-139010571D01*
X119782166Y-139040809D01*
X119812404Y-139071047D01*
X119842642Y-139131523D01*
X119842642Y-139343190D01*
X120175261Y-138375571D02*
X120175261Y-138738428D01*
X120175261Y-138557000D02*
X119540261Y-138557000D01*
X119630976Y-138617476D01*
X119691452Y-138677952D01*
X119721690Y-138738428D01*
X117635261Y-139978190D02*
X117000261Y-139978190D01*
X117000261Y-139736285D01*
X117030500Y-139675809D01*
X117060738Y-139645571D01*
X117121214Y-139615333D01*
X117211928Y-139615333D01*
X117272404Y-139645571D01*
X117302642Y-139675809D01*
X117332880Y-139736285D01*
X117332880Y-139978190D01*
X117302642Y-139131523D02*
X117332880Y-139040809D01*
X117363119Y-139010571D01*
X117423595Y-138980333D01*
X117514309Y-138980333D01*
X117574785Y-139010571D01*
X117605023Y-139040809D01*
X117635261Y-139101285D01*
X117635261Y-139343190D01*
X117000261Y-139343190D01*
X117000261Y-139131523D01*
X117030500Y-139071047D01*
X117060738Y-139040809D01*
X117121214Y-139010571D01*
X117181690Y-139010571D01*
X117242166Y-139040809D01*
X117272404Y-139071047D01*
X117302642Y-139131523D01*
X117302642Y-139343190D01*
X117000261Y-138587238D02*
X117000261Y-138526761D01*
X117030500Y-138466285D01*
X117060738Y-138436047D01*
X117121214Y-138405809D01*
X117242166Y-138375571D01*
X117393357Y-138375571D01*
X117514309Y-138405809D01*
X117574785Y-138436047D01*
X117605023Y-138466285D01*
X117635261Y-138526761D01*
X117635261Y-138587238D01*
X117605023Y-138647714D01*
X117574785Y-138677952D01*
X117514309Y-138708190D01*
X117393357Y-138738428D01*
X117242166Y-138738428D01*
X117121214Y-138708190D01*
X117060738Y-138677952D01*
X117030500Y-138647714D01*
X117000261Y-138587238D01*
D11*
X141652857Y-95293571D02*
X141652857Y-93793571D01*
X142224285Y-93793571D01*
X142367142Y-93865000D01*
X142438571Y-93936428D01*
X142510000Y-94079285D01*
X142510000Y-94293571D01*
X142438571Y-94436428D01*
X142367142Y-94507857D01*
X142224285Y-94579285D01*
X141652857Y-94579285D01*
X144010000Y-95150714D02*
X143938571Y-95222142D01*
X143724285Y-95293571D01*
X143581428Y-95293571D01*
X143367142Y-95222142D01*
X143224285Y-95079285D01*
X143152857Y-94936428D01*
X143081428Y-94650714D01*
X143081428Y-94436428D01*
X143152857Y-94150714D01*
X143224285Y-94007857D01*
X143367142Y-93865000D01*
X143581428Y-93793571D01*
X143724285Y-93793571D01*
X143938571Y-93865000D01*
X144010000Y-93936428D01*
X145438571Y-95293571D02*
X144581428Y-95293571D01*
X145010000Y-95293571D02*
X145010000Y-93793571D01*
X144867142Y-94007857D01*
X144724285Y-94150714D01*
X144581428Y-94222142D01*
X120951857Y-95547571D02*
X120951857Y-94047571D01*
X121523285Y-94047571D01*
X121666142Y-94119000D01*
X121737571Y-94190428D01*
X121809000Y-94333285D01*
X121809000Y-94547571D01*
X121737571Y-94690428D01*
X121666142Y-94761857D01*
X121523285Y-94833285D01*
X120951857Y-94833285D01*
X123309000Y-95404714D02*
X123237571Y-95476142D01*
X123023285Y-95547571D01*
X122880428Y-95547571D01*
X122666142Y-95476142D01*
X122523285Y-95333285D01*
X122451857Y-95190428D01*
X122380428Y-94904714D01*
X122380428Y-94690428D01*
X122451857Y-94404714D01*
X122523285Y-94261857D01*
X122666142Y-94119000D01*
X122880428Y-94047571D01*
X123023285Y-94047571D01*
X123237571Y-94119000D01*
X123309000Y-94190428D01*
X123880428Y-94190428D02*
X123951857Y-94119000D01*
X124094714Y-94047571D01*
X124451857Y-94047571D01*
X124594714Y-94119000D01*
X124666142Y-94190428D01*
X124737571Y-94333285D01*
X124737571Y-94476142D01*
X124666142Y-94690428D01*
X123809000Y-95547571D01*
X124737571Y-95547571D01*
X120951857Y-93388571D02*
X120951857Y-91888571D01*
X121523285Y-91888571D01*
X121666142Y-91960000D01*
X121737571Y-92031428D01*
X121809000Y-92174285D01*
X121809000Y-92388571D01*
X121737571Y-92531428D01*
X121666142Y-92602857D01*
X121523285Y-92674285D01*
X120951857Y-92674285D01*
X123309000Y-93245714D02*
X123237571Y-93317142D01*
X123023285Y-93388571D01*
X122880428Y-93388571D01*
X122666142Y-93317142D01*
X122523285Y-93174285D01*
X122451857Y-93031428D01*
X122380428Y-92745714D01*
X122380428Y-92531428D01*
X122451857Y-92245714D01*
X122523285Y-92102857D01*
X122666142Y-91960000D01*
X122880428Y-91888571D01*
X123023285Y-91888571D01*
X123237571Y-91960000D01*
X123309000Y-92031428D01*
X123809000Y-91888571D02*
X124737571Y-91888571D01*
X124237571Y-92460000D01*
X124451857Y-92460000D01*
X124594714Y-92531428D01*
X124666142Y-92602857D01*
X124737571Y-92745714D01*
X124737571Y-93102857D01*
X124666142Y-93245714D01*
X124594714Y-93317142D01*
X124451857Y-93388571D01*
X124023285Y-93388571D01*
X123880428Y-93317142D01*
X123809000Y-93245714D01*
X141652857Y-92880571D02*
X141652857Y-91380571D01*
X142224285Y-91380571D01*
X142367142Y-91452000D01*
X142438571Y-91523428D01*
X142510000Y-91666285D01*
X142510000Y-91880571D01*
X142438571Y-92023428D01*
X142367142Y-92094857D01*
X142224285Y-92166285D01*
X141652857Y-92166285D01*
X144010000Y-92737714D02*
X143938571Y-92809142D01*
X143724285Y-92880571D01*
X143581428Y-92880571D01*
X143367142Y-92809142D01*
X143224285Y-92666285D01*
X143152857Y-92523428D01*
X143081428Y-92237714D01*
X143081428Y-92023428D01*
X143152857Y-91737714D01*
X143224285Y-91594857D01*
X143367142Y-91452000D01*
X143581428Y-91380571D01*
X143724285Y-91380571D01*
X143938571Y-91452000D01*
X144010000Y-91523428D01*
X144938571Y-91380571D02*
X145081428Y-91380571D01*
X145224285Y-91452000D01*
X145295714Y-91523428D01*
X145367142Y-91666285D01*
X145438571Y-91952000D01*
X145438571Y-92309142D01*
X145367142Y-92594857D01*
X145295714Y-92737714D01*
X145224285Y-92809142D01*
X145081428Y-92880571D01*
X144938571Y-92880571D01*
X144795714Y-92809142D01*
X144724285Y-92737714D01*
X144652857Y-92594857D01*
X144581428Y-92309142D01*
X144581428Y-91952000D01*
X144652857Y-91666285D01*
X144724285Y-91523428D01*
X144795714Y-91452000D01*
X144938571Y-91380571D01*
D12*
X129413000Y-70739000D02*
X129413000Y-70104000D01*
X129413000Y-72009000D02*
X129413000Y-72517000D01*
D14*
X129685142Y-69414571D02*
X129721428Y-69450857D01*
X129757714Y-69559714D01*
X129757714Y-69632285D01*
X129721428Y-69741142D01*
X129648857Y-69813714D01*
X129576285Y-69850000D01*
X129431142Y-69886285D01*
X129322285Y-69886285D01*
X129177142Y-69850000D01*
X129104571Y-69813714D01*
X129032000Y-69741142D01*
X128995714Y-69632285D01*
X128995714Y-69559714D01*
X129032000Y-69450857D01*
X129068285Y-69414571D01*
X128995714Y-68942857D02*
X128995714Y-68797714D01*
X129032000Y-68725142D01*
X129104571Y-68652571D01*
X129249714Y-68616285D01*
X129503714Y-68616285D01*
X129648857Y-68652571D01*
X129721428Y-68725142D01*
X129757714Y-68797714D01*
X129757714Y-68942857D01*
X129721428Y-69015428D01*
X129648857Y-69088000D01*
X129503714Y-69124285D01*
X129249714Y-69124285D01*
X129104571Y-69088000D01*
X129032000Y-69015428D01*
X128995714Y-68942857D01*
X129757714Y-68289714D02*
X128995714Y-68289714D01*
X129757714Y-67854285D01*
X128995714Y-67854285D01*
X129757714Y-67491428D02*
X128995714Y-67491428D01*
X129757714Y-67056000D01*
X128995714Y-67056000D01*
X129757714Y-74276857D02*
X129394857Y-74530857D01*
X129757714Y-74712285D02*
X128995714Y-74712285D01*
X128995714Y-74422000D01*
X129032000Y-74349428D01*
X129068285Y-74313142D01*
X129140857Y-74276857D01*
X129249714Y-74276857D01*
X129322285Y-74313142D01*
X129358571Y-74349428D01*
X129394857Y-74422000D01*
X129394857Y-74712285D01*
X129358571Y-73950285D02*
X129358571Y-73696285D01*
X129757714Y-73587428D02*
X129757714Y-73950285D01*
X128995714Y-73950285D01*
X128995714Y-73587428D01*
X129032000Y-72861714D02*
X128995714Y-72934285D01*
X128995714Y-73043142D01*
X129032000Y-73152000D01*
X129104571Y-73224571D01*
X129177142Y-73260857D01*
X129322285Y-73297142D01*
X129431142Y-73297142D01*
X129576285Y-73260857D01*
X129648857Y-73224571D01*
X129721428Y-73152000D01*
X129757714Y-73043142D01*
X129757714Y-72970571D01*
X129721428Y-72861714D01*
X129685142Y-72825428D01*
X129431142Y-72825428D01*
X129431142Y-72970571D01*
X127997857Y-71083714D02*
X128469571Y-71083714D01*
X128215571Y-71374000D01*
X128324428Y-71374000D01*
X128397000Y-71410285D01*
X128433285Y-71446571D01*
X128469571Y-71519142D01*
X128469571Y-71700571D01*
X128433285Y-71773142D01*
X128397000Y-71809428D01*
X128324428Y-71845714D01*
X128106714Y-71845714D01*
X128034142Y-71809428D01*
X127997857Y-71773142D01*
X128687285Y-71083714D02*
X128941285Y-71845714D01*
X129195285Y-71083714D01*
X129558142Y-71773142D02*
X129594428Y-71809428D01*
X129558142Y-71845714D01*
X129521857Y-71809428D01*
X129558142Y-71773142D01*
X129558142Y-71845714D01*
X129413000Y-71120000D02*
X129485571Y-71083714D01*
X129667000Y-71083714D01*
X129739571Y-71120000D01*
X129775857Y-71192571D01*
X129775857Y-71265142D01*
X129739571Y-71337714D01*
X129703285Y-71374000D01*
X129630714Y-71410285D01*
X129594428Y-71446571D01*
X129558142Y-71519142D01*
X129558142Y-71555428D01*
D12*
X122174000Y-78994000D02*
X121793000Y-78994000D01*
X122174000Y-78232000D02*
X122174000Y-78994000D01*
X122174000Y-78232000D02*
X122174000Y-76327000D01*
X122174000Y-76327000D02*
X122174000Y-74422000D01*
X121666000Y-76327000D02*
X122174000Y-76327000D01*
D14*
X120051285Y-75782714D02*
X119688428Y-75782714D01*
X119652142Y-76145571D01*
X119688428Y-76109285D01*
X119761000Y-76073000D01*
X119942428Y-76073000D01*
X120015000Y-76109285D01*
X120051285Y-76145571D01*
X120087571Y-76218142D01*
X120087571Y-76399571D01*
X120051285Y-76472142D01*
X120015000Y-76508428D01*
X119942428Y-76544714D01*
X119761000Y-76544714D01*
X119688428Y-76508428D01*
X119652142Y-76472142D01*
X120305285Y-75782714D02*
X120559285Y-76544714D01*
X120813285Y-75782714D01*
X121176142Y-76472142D02*
X121212428Y-76508428D01*
X121176142Y-76544714D01*
X121139857Y-76508428D01*
X121176142Y-76472142D01*
X121176142Y-76544714D01*
X121031000Y-75819000D02*
X121103571Y-75782714D01*
X121285000Y-75782714D01*
X121357571Y-75819000D01*
X121393857Y-75891571D01*
X121393857Y-75964142D01*
X121357571Y-76036714D01*
X121321285Y-76073000D01*
X121248714Y-76109285D01*
X121212428Y-76145571D01*
X121176142Y-76218142D01*
X121176142Y-76254428D01*
X119561428Y-78703714D02*
X119561428Y-79320571D01*
X119597714Y-79393142D01*
X119634000Y-79429428D01*
X119706571Y-79465714D01*
X119851714Y-79465714D01*
X119924285Y-79429428D01*
X119960571Y-79393142D01*
X119996857Y-79320571D01*
X119996857Y-78703714D01*
X120323428Y-79429428D02*
X120432285Y-79465714D01*
X120613714Y-79465714D01*
X120686285Y-79429428D01*
X120722571Y-79393142D01*
X120758857Y-79320571D01*
X120758857Y-79248000D01*
X120722571Y-79175428D01*
X120686285Y-79139142D01*
X120613714Y-79102857D01*
X120468571Y-79066571D01*
X120396000Y-79030285D01*
X120359714Y-78994000D01*
X120323428Y-78921428D01*
X120323428Y-78848857D01*
X120359714Y-78776285D01*
X120396000Y-78740000D01*
X120468571Y-78703714D01*
X120650000Y-78703714D01*
X120758857Y-78740000D01*
X121339428Y-79066571D02*
X121448285Y-79102857D01*
X121484571Y-79139142D01*
X121520857Y-79211714D01*
X121520857Y-79320571D01*
X121484571Y-79393142D01*
X121448285Y-79429428D01*
X121375714Y-79465714D01*
X121085428Y-79465714D01*
X121085428Y-78703714D01*
X121339428Y-78703714D01*
X121412000Y-78740000D01*
X121448285Y-78776285D01*
X121484571Y-78848857D01*
X121484571Y-78921428D01*
X121448285Y-78994000D01*
X121412000Y-79030285D01*
X121339428Y-79066571D01*
X121085428Y-79066571D01*
X119942428Y-74059142D02*
X119906142Y-74095428D01*
X119797285Y-74131714D01*
X119724714Y-74131714D01*
X119615857Y-74095428D01*
X119543285Y-74022857D01*
X119507000Y-73950285D01*
X119470714Y-73805142D01*
X119470714Y-73696285D01*
X119507000Y-73551142D01*
X119543285Y-73478571D01*
X119615857Y-73406000D01*
X119724714Y-73369714D01*
X119797285Y-73369714D01*
X119906142Y-73406000D01*
X119942428Y-73442285D01*
X120414142Y-73369714D02*
X120559285Y-73369714D01*
X120631857Y-73406000D01*
X120704428Y-73478571D01*
X120740714Y-73623714D01*
X120740714Y-73877714D01*
X120704428Y-74022857D01*
X120631857Y-74095428D01*
X120559285Y-74131714D01*
X120414142Y-74131714D01*
X120341571Y-74095428D01*
X120269000Y-74022857D01*
X120232714Y-73877714D01*
X120232714Y-73623714D01*
X120269000Y-73478571D01*
X120341571Y-73406000D01*
X120414142Y-73369714D01*
X121067285Y-74131714D02*
X121067285Y-73369714D01*
X121502714Y-74131714D01*
X121502714Y-73369714D01*
X121865571Y-74131714D02*
X121865571Y-73369714D01*
X122301000Y-74131714D01*
X122301000Y-73369714D01*
D13*
X115107357Y-70503142D02*
X115107357Y-70019333D01*
X115349261Y-70261238D02*
X114865452Y-70261238D01*
X114714261Y-68446952D02*
X114714261Y-68749333D01*
X115016642Y-68779571D01*
X114986404Y-68749333D01*
X114956166Y-68688857D01*
X114956166Y-68537666D01*
X114986404Y-68477190D01*
X115016642Y-68446952D01*
X115077119Y-68416714D01*
X115228309Y-68416714D01*
X115288785Y-68446952D01*
X115319023Y-68477190D01*
X115349261Y-68537666D01*
X115349261Y-68688857D01*
X115319023Y-68749333D01*
X115288785Y-68779571D01*
X114714261Y-68235285D02*
X115349261Y-68023619D01*
X114714261Y-67811952D01*
X115107357Y-66632666D02*
X115107357Y-66148857D01*
X138856357Y-70599904D02*
X138856357Y-70116095D01*
X139098261Y-70358000D02*
X138614452Y-70358000D01*
X138463261Y-69390380D02*
X138463261Y-68997285D01*
X138705166Y-69208952D01*
X138705166Y-69118238D01*
X138735404Y-69057761D01*
X138765642Y-69027523D01*
X138826119Y-68997285D01*
X138977309Y-68997285D01*
X139037785Y-69027523D01*
X139068023Y-69057761D01*
X139098261Y-69118238D01*
X139098261Y-69299666D01*
X139068023Y-69360142D01*
X139037785Y-69390380D01*
X139037785Y-68725142D02*
X139068023Y-68694904D01*
X139098261Y-68725142D01*
X139068023Y-68755380D01*
X139037785Y-68725142D01*
X139098261Y-68725142D01*
X138463261Y-68483238D02*
X138463261Y-68090142D01*
X138705166Y-68301809D01*
X138705166Y-68211095D01*
X138735404Y-68150619D01*
X138765642Y-68120380D01*
X138826119Y-68090142D01*
X138977309Y-68090142D01*
X139037785Y-68120380D01*
X139068023Y-68150619D01*
X139098261Y-68211095D01*
X139098261Y-68392523D01*
X139068023Y-68453000D01*
X139037785Y-68483238D01*
X138463261Y-67908714D02*
X139098261Y-67697047D01*
X138463261Y-67485380D01*
X138856357Y-66789904D02*
X138856357Y-66306095D01*
X95077642Y-103166333D02*
X95077642Y-103378000D01*
X95410261Y-103378000D02*
X94775261Y-103378000D01*
X94775261Y-103075619D01*
X94775261Y-102924428D02*
X94775261Y-102561571D01*
X95410261Y-102743000D02*
X94775261Y-102743000D01*
X95470738Y-102501095D02*
X95470738Y-102017285D01*
X95410261Y-101866095D02*
X94775261Y-101866095D01*
X94775261Y-101624190D01*
X94805500Y-101563714D01*
X94835738Y-101533476D01*
X94896214Y-101503238D01*
X94986928Y-101503238D01*
X95047404Y-101533476D01*
X95077642Y-101563714D01*
X95107880Y-101624190D01*
X95107880Y-101866095D01*
X94775261Y-101291571D02*
X95410261Y-101140380D01*
X94956690Y-101019428D01*
X95410261Y-100898476D01*
X94775261Y-100747285D01*
X95077642Y-100505380D02*
X95077642Y-100293714D01*
X95410261Y-100203000D02*
X95410261Y-100505380D01*
X94775261Y-100505380D01*
X94775261Y-100203000D01*
X95410261Y-99930857D02*
X94775261Y-99930857D01*
X95410261Y-99568000D01*
X94775261Y-99568000D01*
X94775261Y-98527809D02*
X94775261Y-98164952D01*
X95410261Y-98346380D02*
X94775261Y-98346380D01*
X94775261Y-98013761D02*
X95410261Y-97590428D01*
X94775261Y-97590428D02*
X95410261Y-98013761D01*
X95410261Y-95609833D02*
X95107880Y-95821500D01*
X95410261Y-95972690D02*
X94775261Y-95972690D01*
X94775261Y-95730785D01*
X94805500Y-95670309D01*
X94835738Y-95640071D01*
X94896214Y-95609833D01*
X94986928Y-95609833D01*
X95047404Y-95640071D01*
X95077642Y-95670309D01*
X95107880Y-95730785D01*
X95107880Y-95972690D01*
X94775261Y-95398166D02*
X95410261Y-94974833D01*
X94775261Y-94974833D02*
X95410261Y-95398166D01*
X95349785Y-93184738D02*
X95380023Y-93214976D01*
X95410261Y-93305690D01*
X95410261Y-93366166D01*
X95380023Y-93456880D01*
X95319547Y-93517357D01*
X95259071Y-93547595D01*
X95138119Y-93577833D01*
X95047404Y-93577833D01*
X94926452Y-93547595D01*
X94865976Y-93517357D01*
X94805500Y-93456880D01*
X94775261Y-93366166D01*
X94775261Y-93305690D01*
X94805500Y-93214976D01*
X94835738Y-93184738D01*
X94775261Y-93003309D02*
X94775261Y-92640452D01*
X95410261Y-92821880D02*
X94775261Y-92821880D01*
X95380023Y-92459023D02*
X95410261Y-92368309D01*
X95410261Y-92217119D01*
X95380023Y-92156642D01*
X95349785Y-92126404D01*
X95289309Y-92096166D01*
X95228833Y-92096166D01*
X95168357Y-92126404D01*
X95138119Y-92156642D01*
X95107880Y-92217119D01*
X95077642Y-92338071D01*
X95047404Y-92398547D01*
X95017166Y-92428785D01*
X94956690Y-92459023D01*
X94896214Y-92459023D01*
X94835738Y-92428785D01*
X94805500Y-92398547D01*
X94775261Y-92338071D01*
X94775261Y-92186880D01*
X94805500Y-92096166D01*
X95410261Y-90898738D02*
X95107880Y-91110404D01*
X95410261Y-91261595D02*
X94775261Y-91261595D01*
X94775261Y-91019690D01*
X94805500Y-90959214D01*
X94835738Y-90928976D01*
X94896214Y-90898738D01*
X94986928Y-90898738D01*
X95047404Y-90928976D01*
X95077642Y-90959214D01*
X95107880Y-91019690D01*
X95107880Y-91261595D01*
X94775261Y-90717309D02*
X94775261Y-90354452D01*
X95410261Y-90535880D02*
X94775261Y-90535880D01*
X95380023Y-90173023D02*
X95410261Y-90082309D01*
X95410261Y-89931119D01*
X95380023Y-89870642D01*
X95349785Y-89840404D01*
X95289309Y-89810166D01*
X95228833Y-89810166D01*
X95168357Y-89840404D01*
X95138119Y-89870642D01*
X95107880Y-89931119D01*
X95077642Y-90052071D01*
X95047404Y-90112547D01*
X95017166Y-90142785D01*
X94956690Y-90173023D01*
X94896214Y-90173023D01*
X94835738Y-90142785D01*
X94805500Y-90112547D01*
X94775261Y-90052071D01*
X94775261Y-89900880D01*
X94805500Y-89810166D01*
X110317642Y-90572166D02*
X110347880Y-90481452D01*
X110378119Y-90451214D01*
X110438595Y-90420976D01*
X110529309Y-90420976D01*
X110589785Y-90451214D01*
X110620023Y-90481452D01*
X110650261Y-90541928D01*
X110650261Y-90783833D01*
X110015261Y-90783833D01*
X110015261Y-90572166D01*
X110045500Y-90511690D01*
X110075738Y-90481452D01*
X110136214Y-90451214D01*
X110196690Y-90451214D01*
X110257166Y-90481452D01*
X110287404Y-90511690D01*
X110317642Y-90572166D01*
X110317642Y-90783833D01*
X110015261Y-90027880D02*
X110015261Y-89906928D01*
X110045500Y-89846452D01*
X110105976Y-89785976D01*
X110226928Y-89755738D01*
X110438595Y-89755738D01*
X110559547Y-89785976D01*
X110620023Y-89846452D01*
X110650261Y-89906928D01*
X110650261Y-90027880D01*
X110620023Y-90088357D01*
X110559547Y-90148833D01*
X110438595Y-90179071D01*
X110226928Y-90179071D01*
X110105976Y-90148833D01*
X110045500Y-90088357D01*
X110015261Y-90027880D01*
X110015261Y-89362642D02*
X110015261Y-89241690D01*
X110045500Y-89181214D01*
X110105976Y-89120738D01*
X110226928Y-89090500D01*
X110438595Y-89090500D01*
X110559547Y-89120738D01*
X110620023Y-89181214D01*
X110650261Y-89241690D01*
X110650261Y-89362642D01*
X110620023Y-89423119D01*
X110559547Y-89483595D01*
X110438595Y-89513833D01*
X110226928Y-89513833D01*
X110105976Y-89483595D01*
X110045500Y-89423119D01*
X110015261Y-89362642D01*
X110015261Y-88909071D02*
X110015261Y-88546214D01*
X110650261Y-88727642D02*
X110015261Y-88727642D01*
X110015261Y-88213595D02*
X110015261Y-88153119D01*
X110045500Y-88092642D01*
X110075738Y-88062404D01*
X110136214Y-88032166D01*
X110257166Y-88001928D01*
X110408357Y-88001928D01*
X110529309Y-88032166D01*
X110589785Y-88062404D01*
X110620023Y-88092642D01*
X110650261Y-88153119D01*
X110650261Y-88213595D01*
X110620023Y-88274071D01*
X110589785Y-88304309D01*
X110529309Y-88334547D01*
X110408357Y-88364785D01*
X110257166Y-88364785D01*
X110136214Y-88334547D01*
X110075738Y-88304309D01*
X110045500Y-88274071D01*
X110015261Y-88213595D01*
D10*
X153978428Y-75601285D02*
X153978428Y-75020714D01*
X154268714Y-75311000D02*
X153688142Y-75311000D01*
X153978428Y-73569285D02*
X153978428Y-72988714D01*
D12*
X126238000Y-95504000D02*
X125222000Y-95504000D01*
X125222000Y-103124000D02*
X126238000Y-103124000D01*
X125222000Y-95504000D02*
X125222000Y-103124000D01*
X126238000Y-84074000D02*
X125222000Y-84074000D01*
X125222000Y-91694000D02*
X126238000Y-91694000D01*
X125222000Y-84074000D02*
X125222000Y-91694000D01*
X139954000Y-91440000D02*
X140970000Y-91440000D01*
X140970000Y-83820000D02*
X139954000Y-83820000D01*
X140970000Y-91440000D02*
X140970000Y-83820000D01*
X140970000Y-95250000D02*
X139954000Y-95250000D01*
X140970000Y-102870000D02*
X140970000Y-95250000D01*
X139954000Y-102870000D02*
X140970000Y-102870000D01*
%TO.C,JP3*%
X113852000Y-90484000D02*
X112522000Y-90484000D01*
X113852000Y-89154000D02*
X113852000Y-90484000D01*
X113852000Y-87884000D02*
X111192000Y-87884000D01*
X111192000Y-87884000D02*
X111192000Y-85284000D01*
X113852000Y-87884000D02*
X113852000Y-85284000D01*
X113852000Y-85284000D02*
X111192000Y-85284000D01*
D15*
%TO.C,IC1*%
X116963000Y-109673000D02*
G75*
G03*
X116963000Y-109673000I-125000J0D01*
G01*
D16*
X118413000Y-118823000D02*
X118413000Y-109523000D01*
X127713000Y-118823000D02*
X118413000Y-118823000D01*
X127713000Y-109523000D02*
X127713000Y-118823000D01*
X118413000Y-109523000D02*
X127713000Y-109523000D01*
D12*
%TO.C,C11*%
X115708500Y-106886752D02*
X115708500Y-106364248D01*
X114288500Y-106886752D02*
X114288500Y-106364248D01*
%TO.C,J9*%
X156778000Y-130489000D02*
X156778000Y-127829000D01*
X151638000Y-130489000D02*
X156778000Y-130489000D01*
X151638000Y-127829000D02*
X156778000Y-127829000D01*
X151638000Y-130489000D02*
X151638000Y-127829000D01*
X150368000Y-130489000D02*
X149038000Y-130489000D01*
X149038000Y-130489000D02*
X149038000Y-129159000D01*
%TO.C,J8*%
X96206000Y-101914000D02*
X98866000Y-101914000D01*
X96206000Y-91694000D02*
X96206000Y-101914000D01*
X98866000Y-91694000D02*
X98866000Y-101914000D01*
X96206000Y-91694000D02*
X98866000Y-91694000D01*
X96206000Y-90424000D02*
X96206000Y-89094000D01*
X96206000Y-89094000D02*
X97536000Y-89094000D01*
D17*
%TO.C,U2*%
X110782100Y-82931000D02*
X110782100Y-77089000D01*
X110782100Y-77089000D02*
X110183640Y-77089000D01*
X100037900Y-77089000D02*
X100037900Y-82931000D01*
X100037900Y-82931000D02*
X100636360Y-82931000D01*
X110183638Y-82931000D02*
X110782100Y-82931000D01*
X100636360Y-77089000D02*
X100037900Y-77089000D01*
X106844498Y-84823300D02*
X107225498Y-84823300D01*
X107225498Y-84823300D02*
X107225498Y-84569300D01*
X107225498Y-84569300D02*
X106844498Y-84569300D01*
X106844498Y-84569300D02*
X106844498Y-84823300D01*
X106194499Y-75196700D02*
X106575499Y-75196700D01*
X106575499Y-75196700D02*
X106575499Y-75450700D01*
X106575499Y-75450700D02*
X106194499Y-75450700D01*
X106194499Y-75450700D02*
X106194499Y-75196700D01*
%TO.C,SW4*%
X132410200Y-102184200D02*
X132410200Y-95935800D01*
X130771461Y-95935800D02*
X127800539Y-95935800D01*
X126161800Y-95935800D02*
X126161800Y-102184200D01*
X127800539Y-102184200D02*
X130771461Y-102184200D01*
X131038600Y-99060000D02*
G75*
G03*
X131038600Y-99060000I-1752600J0D01*
G01*
%TO.C,SW5*%
X132410200Y-90754200D02*
X132410200Y-84505800D01*
X130771461Y-84505800D02*
X127800539Y-84505800D01*
X126161800Y-84505800D02*
X126161800Y-90754200D01*
X127800539Y-90754200D02*
X130771461Y-90754200D01*
X131038600Y-87630000D02*
G75*
G03*
X131038600Y-87630000I-1752600J0D01*
G01*
%TO.C,SW3*%
X133781800Y-95935800D02*
X133781800Y-102184200D01*
X135420539Y-102184200D02*
X138391461Y-102184200D01*
X140030200Y-102184200D02*
X140030200Y-95935800D01*
X138391461Y-95935800D02*
X135420539Y-95935800D01*
X138658600Y-99060000D02*
G75*
G03*
X138658600Y-99060000I-1752600J0D01*
G01*
%TO.C,SW2*%
X133781800Y-84505800D02*
X133781800Y-90754200D01*
X135420539Y-90754200D02*
X138391461Y-90754200D01*
X140030200Y-90754200D02*
X140030200Y-84505800D01*
X138391461Y-84505800D02*
X135420539Y-84505800D01*
X138658600Y-87630000D02*
G75*
G03*
X138658600Y-87630000I-1752600J0D01*
G01*
D18*
%TO.C,J1*%
X112589000Y-71721000D02*
X112589000Y-70711000D01*
X105089000Y-70711000D02*
X105089000Y-71721000D01*
X107019000Y-73591000D02*
X106034000Y-73591000D01*
X110659000Y-73591000D02*
X111644000Y-73591000D01*
X112589000Y-68171000D02*
X112589000Y-64791000D01*
X105089000Y-64791000D02*
X105089000Y-68171000D01*
D19*
X110239000Y-74041000D02*
G75*
G03*
X110239000Y-74041000I-50000J0D01*
G01*
D17*
%TO.C,SW1*%
X116535200Y-100914200D02*
X116535200Y-94665800D01*
X114896461Y-94665800D02*
X111925539Y-94665800D01*
X110286800Y-94665800D02*
X110286800Y-100914200D01*
X111925539Y-100914200D02*
X114896461Y-100914200D01*
X115163600Y-97790000D02*
G75*
G03*
X115163600Y-97790000I-1752600J0D01*
G01*
D12*
%TO.C,R5*%
X119305000Y-97392748D02*
X119305000Y-97915252D01*
X120725000Y-97392748D02*
X120725000Y-97915252D01*
%TO.C,R1*%
X98246000Y-105426252D02*
X98246000Y-104903748D01*
X96826000Y-105426252D02*
X96826000Y-104903748D01*
%TO.C,JP2*%
X130369000Y-67377000D02*
X131699000Y-67377000D01*
X130369000Y-68707000D02*
X130369000Y-67377000D01*
X130369000Y-69977000D02*
X133029000Y-69977000D01*
X133029000Y-69977000D02*
X133029000Y-75117000D01*
X130369000Y-69977000D02*
X130369000Y-75117000D01*
X130369000Y-75117000D02*
X133029000Y-75117000D01*
%TO.C,JP1*%
X116145000Y-72203000D02*
X117475000Y-72203000D01*
X116145000Y-73533000D02*
X116145000Y-72203000D01*
X116145000Y-74803000D02*
X118805000Y-74803000D01*
X118805000Y-74803000D02*
X118805000Y-79943000D01*
X116145000Y-74803000D02*
X116145000Y-79943000D01*
X116145000Y-79943000D02*
X118805000Y-79943000D01*
%TO.C,J7*%
X148675400Y-86547000D02*
X147345400Y-86547000D01*
X148675400Y-85217000D02*
X148675400Y-86547000D01*
X148675400Y-83947000D02*
X146015400Y-83947000D01*
X146015400Y-83947000D02*
X146015400Y-66107000D01*
X148675400Y-83947000D02*
X148675400Y-66107000D01*
X148675400Y-66107000D02*
X146015400Y-66107000D01*
%TO.C,J6*%
X116018000Y-137982000D02*
X116018000Y-136652000D01*
X117348000Y-137982000D02*
X116018000Y-137982000D01*
X118618000Y-137982000D02*
X118618000Y-135322000D01*
X118618000Y-135322000D02*
X156778000Y-135322000D01*
X118618000Y-137982000D02*
X156778000Y-137982000D01*
X156778000Y-137982000D02*
X156778000Y-135322000D01*
%TO.C,J3*%
X116018000Y-65853000D02*
X117348000Y-65853000D01*
X116018000Y-67183000D02*
X116018000Y-65853000D01*
X116018000Y-68453000D02*
X118678000Y-68453000D01*
X118678000Y-68453000D02*
X118678000Y-71053000D01*
X116018000Y-68453000D02*
X116018000Y-71053000D01*
X116018000Y-71053000D02*
X118678000Y-71053000D01*
%TO.C,J2*%
X134941000Y-65853000D02*
X136271000Y-65853000D01*
X134941000Y-67183000D02*
X134941000Y-65853000D01*
X134941000Y-68453000D02*
X137601000Y-68453000D01*
X137601000Y-68453000D02*
X137601000Y-71053000D01*
X134941000Y-68453000D02*
X134941000Y-71053000D01*
X134941000Y-71053000D02*
X137601000Y-71053000D01*
%TO.C,D8*%
X154488000Y-72308000D02*
X154488000Y-75168000D01*
X156408000Y-72308000D02*
X154488000Y-72308000D01*
X156408000Y-75168000D02*
X156408000Y-72308000D01*
%TO.C,D7*%
X157790000Y-72308000D02*
X157790000Y-75168000D01*
X159710000Y-72308000D02*
X157790000Y-72308000D01*
X159710000Y-75168000D02*
X159710000Y-72308000D01*
%TO.C,D6*%
X161092000Y-72308000D02*
X161092000Y-75168000D01*
X163012000Y-72308000D02*
X161092000Y-72308000D01*
X163012000Y-75168000D02*
X163012000Y-72308000D01*
%TO.C,D5*%
X164394000Y-72308000D02*
X164394000Y-75168000D01*
X166314000Y-72308000D02*
X164394000Y-72308000D01*
X166314000Y-75168000D02*
X166314000Y-72308000D01*
%TO.C,D4*%
X167696000Y-72308000D02*
X167696000Y-75168000D01*
X169616000Y-72308000D02*
X167696000Y-72308000D01*
X169616000Y-75168000D02*
X169616000Y-72308000D01*
%TO.C,D3*%
X170998000Y-72308000D02*
X170998000Y-75168000D01*
X172918000Y-72308000D02*
X170998000Y-72308000D01*
X172918000Y-75168000D02*
X172918000Y-72308000D01*
%TO.C,D2*%
X174554000Y-72308000D02*
X174554000Y-75168000D01*
X176474000Y-72308000D02*
X174554000Y-72308000D01*
X176474000Y-75168000D02*
X176474000Y-72308000D01*
%TO.C,D1*%
X177856000Y-72317000D02*
X177856000Y-75177000D01*
X179776000Y-72317000D02*
X177856000Y-72317000D01*
X179776000Y-75177000D02*
X179776000Y-72317000D01*
%TO.C,C10*%
X110034000Y-118102748D02*
X110034000Y-118625252D01*
X111454000Y-118102748D02*
X111454000Y-118625252D01*
%TO.C,C7*%
X111454000Y-107449252D02*
X111454000Y-106926748D01*
X110034000Y-107449252D02*
X110034000Y-106926748D01*
%TO.C,R17*%
X125551000Y-84725252D02*
X125551000Y-84202748D01*
X124131000Y-84725252D02*
X124131000Y-84202748D01*
%TO.C,R16*%
X154738000Y-77979748D02*
X154738000Y-78502252D01*
X156158000Y-77979748D02*
X156158000Y-78502252D01*
%TO.C,R15*%
X158040000Y-77970748D02*
X158040000Y-78493252D01*
X159460000Y-77970748D02*
X159460000Y-78493252D01*
%TO.C,R14*%
X161342000Y-77970748D02*
X161342000Y-78493252D01*
X162762000Y-77970748D02*
X162762000Y-78493252D01*
%TO.C,R13*%
X164644000Y-77970748D02*
X164644000Y-78493252D01*
X166064000Y-77970748D02*
X166064000Y-78493252D01*
%TO.C,R12*%
X167946000Y-77970748D02*
X167946000Y-78493252D01*
X169366000Y-77970748D02*
X169366000Y-78493252D01*
%TO.C,R11*%
X171248000Y-77970748D02*
X171248000Y-78493252D01*
X172668000Y-77970748D02*
X172668000Y-78493252D01*
%TO.C,R10*%
X174804000Y-77970748D02*
X174804000Y-78493252D01*
X176224000Y-77970748D02*
X176224000Y-78493252D01*
%TO.C,R9*%
X178106000Y-77970748D02*
X178106000Y-78493252D01*
X179526000Y-77970748D02*
X179526000Y-78493252D01*
%TO.C,R7*%
X144415252Y-102414000D02*
X143892748Y-102414000D01*
X144415252Y-103834000D02*
X143892748Y-103834000D01*
%TO.C,R6*%
X142188000Y-84725252D02*
X142188000Y-84202748D01*
X140768000Y-84725252D02*
X140768000Y-84202748D01*
%TO.C,U3*%
X132470000Y-106554000D02*
X132470000Y-122554000D01*
X134970000Y-106554000D02*
X132470000Y-106554000D01*
X134970000Y-122554000D02*
X132470000Y-122554000D01*
X149970000Y-106554000D02*
X149970000Y-122554000D01*
X146970000Y-106554000D02*
X149970000Y-106554000D01*
X146970000Y-122554000D02*
X149970000Y-122554000D01*
X134970000Y-122554000D02*
X146970000Y-122554000D01*
X146970000Y-106554000D02*
X134970000Y-106554000D01*
D18*
%TO.C,U1*%
X126183000Y-72184000D02*
X126183000Y-70612500D01*
X122483000Y-72184000D02*
X126183000Y-72184000D01*
X122483000Y-71767500D02*
X122483000Y-72184000D01*
X126183000Y-65484000D02*
X126183000Y-67055500D01*
X122483000Y-65484000D02*
X126183000Y-65484000D01*
X122483000Y-65900500D02*
X122483000Y-65484000D01*
D16*
X119981000Y-66534000D02*
G75*
G03*
X119981000Y-66534000I-100000J0D01*
G01*
D12*
%TO.C,FB1*%
X113917252Y-78030000D02*
X113394748Y-78030000D01*
X113917252Y-79450000D02*
X113394748Y-79450000D01*
%TO.C,X1*%
X114681000Y-109220000D02*
X114681000Y-116332000D01*
X110363000Y-116332000D02*
X110363000Y-109220000D01*
X112522000Y-116332000D02*
X110363000Y-116332000D01*
X114681000Y-116332000D02*
X112522000Y-116332000D01*
X112522000Y-109220000D02*
X114681000Y-109220000D01*
X112522000Y-109220000D02*
X110363000Y-109220000D01*
%TO.C,R2*%
X161781748Y-133171000D02*
X162304252Y-133171000D01*
X161781748Y-131751000D02*
X162304252Y-131751000D01*
D18*
%TO.C,J5*%
X181662600Y-81639000D02*
X181662600Y-123339000D01*
X157362600Y-81639000D02*
X157362600Y-123339000D01*
%TO.C,JP3*%
D20*
X111688666Y-90936380D02*
X111688666Y-91650666D01*
X111641047Y-91793523D01*
X111545809Y-91888761D01*
X111402952Y-91936380D01*
X111307714Y-91936380D01*
X112164857Y-91936380D02*
X112164857Y-90936380D01*
X112545809Y-90936380D01*
X112641047Y-90984000D01*
X112688666Y-91031619D01*
X112736285Y-91126857D01*
X112736285Y-91269714D01*
X112688666Y-91364952D01*
X112641047Y-91412571D01*
X112545809Y-91460190D01*
X112164857Y-91460190D01*
X113069619Y-90936380D02*
X113688666Y-90936380D01*
X113355333Y-91317333D01*
X113498190Y-91317333D01*
X113593428Y-91364952D01*
X113641047Y-91412571D01*
X113688666Y-91507809D01*
X113688666Y-91745904D01*
X113641047Y-91841142D01*
X113593428Y-91888761D01*
X113498190Y-91936380D01*
X113212476Y-91936380D01*
X113117238Y-91888761D01*
X113069619Y-91841142D01*
%TO.C,IC1*%
D21*
X121823238Y-114747523D02*
X121823238Y-113477523D01*
X123153714Y-114626571D02*
X123093238Y-114687047D01*
X122911809Y-114747523D01*
X122790857Y-114747523D01*
X122609428Y-114687047D01*
X122488476Y-114566095D01*
X122428000Y-114445142D01*
X122367523Y-114203238D01*
X122367523Y-114021809D01*
X122428000Y-113779904D01*
X122488476Y-113658952D01*
X122609428Y-113538000D01*
X122790857Y-113477523D01*
X122911809Y-113477523D01*
X123093238Y-113538000D01*
X123153714Y-113598476D01*
X124363238Y-114747523D02*
X123637523Y-114747523D01*
X124000380Y-114747523D02*
X124000380Y-113477523D01*
X123879428Y-113658952D01*
X123758476Y-113779904D01*
X123637523Y-113840380D01*
%TO.C,C11*%
D20*
X113705642Y-107268357D02*
X113753261Y-107315976D01*
X113800880Y-107458833D01*
X113800880Y-107554071D01*
X113753261Y-107696928D01*
X113658023Y-107792166D01*
X113562785Y-107839785D01*
X113372309Y-107887404D01*
X113229452Y-107887404D01*
X113038976Y-107839785D01*
X112943738Y-107792166D01*
X112848500Y-107696928D01*
X112800880Y-107554071D01*
X112800880Y-107458833D01*
X112848500Y-107315976D01*
X112896119Y-107268357D01*
X113800880Y-106315976D02*
X113800880Y-106887404D01*
X113800880Y-106601690D02*
X112800880Y-106601690D01*
X112943738Y-106696928D01*
X113038976Y-106792166D01*
X113086595Y-106887404D01*
X113800880Y-105363595D02*
X113800880Y-105935023D01*
X113800880Y-105649309D02*
X112800880Y-105649309D01*
X112943738Y-105744547D01*
X113038976Y-105839785D01*
X113086595Y-105935023D01*
%TO.C,J9*%
X147490380Y-129492333D02*
X148204666Y-129492333D01*
X148347523Y-129539952D01*
X148442761Y-129635190D01*
X148490380Y-129778047D01*
X148490380Y-129873285D01*
X148490380Y-128968523D02*
X148490380Y-128778047D01*
X148442761Y-128682809D01*
X148395142Y-128635190D01*
X148252285Y-128539952D01*
X148061809Y-128492333D01*
X147680857Y-128492333D01*
X147585619Y-128539952D01*
X147538000Y-128587571D01*
X147490380Y-128682809D01*
X147490380Y-128873285D01*
X147538000Y-128968523D01*
X147585619Y-129016142D01*
X147680857Y-129063761D01*
X147918952Y-129063761D01*
X148014190Y-129016142D01*
X148061809Y-128968523D01*
X148109428Y-128873285D01*
X148109428Y-128682809D01*
X148061809Y-128587571D01*
X148014190Y-128539952D01*
X147918952Y-128492333D01*
%TO.C,J8*%
X97202666Y-87546380D02*
X97202666Y-88260666D01*
X97155047Y-88403523D01*
X97059809Y-88498761D01*
X96916952Y-88546380D01*
X96821714Y-88546380D01*
X97821714Y-87974952D02*
X97726476Y-87927333D01*
X97678857Y-87879714D01*
X97631238Y-87784476D01*
X97631238Y-87736857D01*
X97678857Y-87641619D01*
X97726476Y-87594000D01*
X97821714Y-87546380D01*
X98012190Y-87546380D01*
X98107428Y-87594000D01*
X98155047Y-87641619D01*
X98202666Y-87736857D01*
X98202666Y-87784476D01*
X98155047Y-87879714D01*
X98107428Y-87927333D01*
X98012190Y-87974952D01*
X97821714Y-87974952D01*
X97726476Y-88022571D01*
X97678857Y-88070190D01*
X97631238Y-88165428D01*
X97631238Y-88355904D01*
X97678857Y-88451142D01*
X97726476Y-88498761D01*
X97821714Y-88546380D01*
X98012190Y-88546380D01*
X98107428Y-88498761D01*
X98155047Y-88451142D01*
X98202666Y-88355904D01*
X98202666Y-88165428D01*
X98155047Y-88070190D01*
X98107428Y-88022571D01*
X98012190Y-87974952D01*
%TO.C,U2*%
X96988380Y-80571904D02*
X97797904Y-80571904D01*
X97893142Y-80524285D01*
X97940761Y-80476666D01*
X97988380Y-80381428D01*
X97988380Y-80190952D01*
X97940761Y-80095714D01*
X97893142Y-80048095D01*
X97797904Y-80000476D01*
X96988380Y-80000476D01*
X97083619Y-79571904D02*
X97036000Y-79524285D01*
X96988380Y-79429047D01*
X96988380Y-79190952D01*
X97036000Y-79095714D01*
X97083619Y-79048095D01*
X97178857Y-79000476D01*
X97274095Y-79000476D01*
X97416952Y-79048095D01*
X97988380Y-79619523D01*
X97988380Y-79000476D01*
%TO.C,SW4*%
X129690761Y-100393333D02*
X129738380Y-100250476D01*
X129738380Y-100012380D01*
X129690761Y-99917142D01*
X129643142Y-99869523D01*
X129547904Y-99821904D01*
X129452666Y-99821904D01*
X129357428Y-99869523D01*
X129309809Y-99917142D01*
X129262190Y-100012380D01*
X129214571Y-100202857D01*
X129166952Y-100298095D01*
X129119333Y-100345714D01*
X129024095Y-100393333D01*
X128928857Y-100393333D01*
X128833619Y-100345714D01*
X128786000Y-100298095D01*
X128738380Y-100202857D01*
X128738380Y-99964761D01*
X128786000Y-99821904D01*
X128738380Y-99488571D02*
X129738380Y-99250476D01*
X129024095Y-99060000D01*
X129738380Y-98869523D01*
X128738380Y-98631428D01*
X129071714Y-97821904D02*
X129738380Y-97821904D01*
X128690761Y-98060000D02*
X129405047Y-98298095D01*
X129405047Y-97679047D01*
%TO.C,SW5*%
X129690761Y-88963333D02*
X129738380Y-88820476D01*
X129738380Y-88582380D01*
X129690761Y-88487142D01*
X129643142Y-88439523D01*
X129547904Y-88391904D01*
X129452666Y-88391904D01*
X129357428Y-88439523D01*
X129309809Y-88487142D01*
X129262190Y-88582380D01*
X129214571Y-88772857D01*
X129166952Y-88868095D01*
X129119333Y-88915714D01*
X129024095Y-88963333D01*
X128928857Y-88963333D01*
X128833619Y-88915714D01*
X128786000Y-88868095D01*
X128738380Y-88772857D01*
X128738380Y-88534761D01*
X128786000Y-88391904D01*
X128738380Y-88058571D02*
X129738380Y-87820476D01*
X129024095Y-87630000D01*
X129738380Y-87439523D01*
X128738380Y-87201428D01*
X128738380Y-86344285D02*
X128738380Y-86820476D01*
X129214571Y-86868095D01*
X129166952Y-86820476D01*
X129119333Y-86725238D01*
X129119333Y-86487142D01*
X129166952Y-86391904D01*
X129214571Y-86344285D01*
X129309809Y-86296666D01*
X129547904Y-86296666D01*
X129643142Y-86344285D01*
X129690761Y-86391904D01*
X129738380Y-86487142D01*
X129738380Y-86725238D01*
X129690761Y-86820476D01*
X129643142Y-86868095D01*
%TO.C,SW3*%
X137310761Y-100393333D02*
X137358380Y-100250476D01*
X137358380Y-100012380D01*
X137310761Y-99917142D01*
X137263142Y-99869523D01*
X137167904Y-99821904D01*
X137072666Y-99821904D01*
X136977428Y-99869523D01*
X136929809Y-99917142D01*
X136882190Y-100012380D01*
X136834571Y-100202857D01*
X136786952Y-100298095D01*
X136739333Y-100345714D01*
X136644095Y-100393333D01*
X136548857Y-100393333D01*
X136453619Y-100345714D01*
X136406000Y-100298095D01*
X136358380Y-100202857D01*
X136358380Y-99964761D01*
X136406000Y-99821904D01*
X136358380Y-99488571D02*
X137358380Y-99250476D01*
X136644095Y-99060000D01*
X137358380Y-98869523D01*
X136358380Y-98631428D01*
X136358380Y-98345714D02*
X136358380Y-97726666D01*
X136739333Y-98060000D01*
X136739333Y-97917142D01*
X136786952Y-97821904D01*
X136834571Y-97774285D01*
X136929809Y-97726666D01*
X137167904Y-97726666D01*
X137263142Y-97774285D01*
X137310761Y-97821904D01*
X137358380Y-97917142D01*
X137358380Y-98202857D01*
X137310761Y-98298095D01*
X137263142Y-98345714D01*
%TO.C,SW2*%
X137310761Y-88963333D02*
X137358380Y-88820476D01*
X137358380Y-88582380D01*
X137310761Y-88487142D01*
X137263142Y-88439523D01*
X137167904Y-88391904D01*
X137072666Y-88391904D01*
X136977428Y-88439523D01*
X136929809Y-88487142D01*
X136882190Y-88582380D01*
X136834571Y-88772857D01*
X136786952Y-88868095D01*
X136739333Y-88915714D01*
X136644095Y-88963333D01*
X136548857Y-88963333D01*
X136453619Y-88915714D01*
X136406000Y-88868095D01*
X136358380Y-88772857D01*
X136358380Y-88534761D01*
X136406000Y-88391904D01*
X136358380Y-88058571D02*
X137358380Y-87820476D01*
X136644095Y-87630000D01*
X137358380Y-87439523D01*
X136358380Y-87201428D01*
X136453619Y-86868095D02*
X136406000Y-86820476D01*
X136358380Y-86725238D01*
X136358380Y-86487142D01*
X136406000Y-86391904D01*
X136453619Y-86344285D01*
X136548857Y-86296666D01*
X136644095Y-86296666D01*
X136786952Y-86344285D01*
X137358380Y-86915714D01*
X137358380Y-86296666D01*
%TO.C,J1*%
D13*
X103759000Y-65196357D02*
X103759000Y-65468500D01*
X103740857Y-65522928D01*
X103704571Y-65559214D01*
X103650142Y-65577357D01*
X103613857Y-65577357D01*
X104140000Y-65577357D02*
X103922285Y-65577357D01*
X104031142Y-65577357D02*
X104031142Y-65196357D01*
X103994857Y-65250785D01*
X103958571Y-65287071D01*
X103922285Y-65305214D01*
%TO.C,SW1*%
D20*
X113815761Y-99123333D02*
X113863380Y-98980476D01*
X113863380Y-98742380D01*
X113815761Y-98647142D01*
X113768142Y-98599523D01*
X113672904Y-98551904D01*
X113577666Y-98551904D01*
X113482428Y-98599523D01*
X113434809Y-98647142D01*
X113387190Y-98742380D01*
X113339571Y-98932857D01*
X113291952Y-99028095D01*
X113244333Y-99075714D01*
X113149095Y-99123333D01*
X113053857Y-99123333D01*
X112958619Y-99075714D01*
X112911000Y-99028095D01*
X112863380Y-98932857D01*
X112863380Y-98694761D01*
X112911000Y-98551904D01*
X112863380Y-98218571D02*
X113863380Y-97980476D01*
X113149095Y-97790000D01*
X113863380Y-97599523D01*
X112863380Y-97361428D01*
X113863380Y-96456666D02*
X113863380Y-97028095D01*
X113863380Y-96742380D02*
X112863380Y-96742380D01*
X113006238Y-96837619D01*
X113101476Y-96932857D01*
X113149095Y-97028095D01*
%TO.C,R5*%
X122117380Y-97820666D02*
X121641190Y-98154000D01*
X122117380Y-98392095D02*
X121117380Y-98392095D01*
X121117380Y-98011142D01*
X121165000Y-97915904D01*
X121212619Y-97868285D01*
X121307857Y-97820666D01*
X121450714Y-97820666D01*
X121545952Y-97868285D01*
X121593571Y-97915904D01*
X121641190Y-98011142D01*
X121641190Y-98392095D01*
X121117380Y-96915904D02*
X121117380Y-97392095D01*
X121593571Y-97439714D01*
X121545952Y-97392095D01*
X121498333Y-97296857D01*
X121498333Y-97058761D01*
X121545952Y-96963523D01*
X121593571Y-96915904D01*
X121688809Y-96868285D01*
X121926904Y-96868285D01*
X122022142Y-96915904D01*
X122069761Y-96963523D01*
X122117380Y-97058761D01*
X122117380Y-97296857D01*
X122069761Y-97392095D01*
X122022142Y-97439714D01*
%TO.C,R1*%
X96338380Y-105331666D02*
X95862190Y-105665000D01*
X96338380Y-105903095D02*
X95338380Y-105903095D01*
X95338380Y-105522142D01*
X95386000Y-105426904D01*
X95433619Y-105379285D01*
X95528857Y-105331666D01*
X95671714Y-105331666D01*
X95766952Y-105379285D01*
X95814571Y-105426904D01*
X95862190Y-105522142D01*
X95862190Y-105903095D01*
X96338380Y-104379285D02*
X96338380Y-104950714D01*
X96338380Y-104665000D02*
X95338380Y-104665000D01*
X95481238Y-104760238D01*
X95576476Y-104855476D01*
X95624095Y-104950714D01*
%TO.C,JP2*%
X130865666Y-65829380D02*
X130865666Y-66543666D01*
X130818047Y-66686523D01*
X130722809Y-66781761D01*
X130579952Y-66829380D01*
X130484714Y-66829380D01*
X131341857Y-66829380D02*
X131341857Y-65829380D01*
X131722809Y-65829380D01*
X131818047Y-65877000D01*
X131865666Y-65924619D01*
X131913285Y-66019857D01*
X131913285Y-66162714D01*
X131865666Y-66257952D01*
X131818047Y-66305571D01*
X131722809Y-66353190D01*
X131341857Y-66353190D01*
X132294238Y-65924619D02*
X132341857Y-65877000D01*
X132437095Y-65829380D01*
X132675190Y-65829380D01*
X132770428Y-65877000D01*
X132818047Y-65924619D01*
X132865666Y-66019857D01*
X132865666Y-66115095D01*
X132818047Y-66257952D01*
X132246619Y-66829380D01*
X132865666Y-66829380D01*
%TO.C,JP1*%
D18*
X114384666Y-71857809D02*
X114384666Y-72220666D01*
X114360476Y-72293238D01*
X114312095Y-72341619D01*
X114239523Y-72365809D01*
X114191142Y-72365809D01*
X114626571Y-72365809D02*
X114626571Y-71857809D01*
X114820095Y-71857809D01*
X114868476Y-71882000D01*
X114892666Y-71906190D01*
X114916857Y-71954571D01*
X114916857Y-72027142D01*
X114892666Y-72075523D01*
X114868476Y-72099714D01*
X114820095Y-72123904D01*
X114626571Y-72123904D01*
X115400666Y-72365809D02*
X115110380Y-72365809D01*
X115255523Y-72365809D02*
X115255523Y-71857809D01*
X115207142Y-71930380D01*
X115158761Y-71978761D01*
X115110380Y-72002952D01*
%TO.C,J7*%
D20*
X147012066Y-86999380D02*
X147012066Y-87713666D01*
X146964447Y-87856523D01*
X146869209Y-87951761D01*
X146726352Y-87999380D01*
X146631114Y-87999380D01*
X147393019Y-86999380D02*
X148059685Y-86999380D01*
X147631114Y-87999380D01*
%TO.C,J6*%
X114470380Y-136985333D02*
X115184666Y-136985333D01*
X115327523Y-137032952D01*
X115422761Y-137128190D01*
X115470380Y-137271047D01*
X115470380Y-137366285D01*
X114470380Y-136080571D02*
X114470380Y-136271047D01*
X114518000Y-136366285D01*
X114565619Y-136413904D01*
X114708476Y-136509142D01*
X114898952Y-136556761D01*
X115279904Y-136556761D01*
X115375142Y-136509142D01*
X115422761Y-136461523D01*
X115470380Y-136366285D01*
X115470380Y-136175809D01*
X115422761Y-136080571D01*
X115375142Y-136032952D01*
X115279904Y-135985333D01*
X115041809Y-135985333D01*
X114946571Y-136032952D01*
X114898952Y-136080571D01*
X114851333Y-136175809D01*
X114851333Y-136366285D01*
X114898952Y-136461523D01*
X114946571Y-136509142D01*
X115041809Y-136556761D01*
%TO.C,J3*%
D18*
X114638666Y-65380809D02*
X114638666Y-65743666D01*
X114614476Y-65816238D01*
X114566095Y-65864619D01*
X114493523Y-65888809D01*
X114445142Y-65888809D01*
X114832190Y-65380809D02*
X115146666Y-65380809D01*
X114977333Y-65574333D01*
X115049904Y-65574333D01*
X115098285Y-65598523D01*
X115122476Y-65622714D01*
X115146666Y-65671095D01*
X115146666Y-65792047D01*
X115122476Y-65840428D01*
X115098285Y-65864619D01*
X115049904Y-65888809D01*
X114904761Y-65888809D01*
X114856380Y-65864619D01*
X114832190Y-65840428D01*
%TO.C,J2*%
D20*
X138604666Y-64984380D02*
X138604666Y-65698666D01*
X138557047Y-65841523D01*
X138461809Y-65936761D01*
X138318952Y-65984380D01*
X138223714Y-65984380D01*
X139033238Y-65079619D02*
X139080857Y-65032000D01*
X139176095Y-64984380D01*
X139414190Y-64984380D01*
X139509428Y-65032000D01*
X139557047Y-65079619D01*
X139604666Y-65174857D01*
X139604666Y-65270095D01*
X139557047Y-65412952D01*
X138985619Y-65984380D01*
X139604666Y-65984380D01*
%TO.C,D8*%
X157550380Y-74906095D02*
X156550380Y-74906095D01*
X156550380Y-74668000D01*
X156598000Y-74525142D01*
X156693238Y-74429904D01*
X156788476Y-74382285D01*
X156978952Y-74334666D01*
X157121809Y-74334666D01*
X157312285Y-74382285D01*
X157407523Y-74429904D01*
X157502761Y-74525142D01*
X157550380Y-74668000D01*
X157550380Y-74906095D01*
X156978952Y-73763238D02*
X156931333Y-73858476D01*
X156883714Y-73906095D01*
X156788476Y-73953714D01*
X156740857Y-73953714D01*
X156645619Y-73906095D01*
X156598000Y-73858476D01*
X156550380Y-73763238D01*
X156550380Y-73572761D01*
X156598000Y-73477523D01*
X156645619Y-73429904D01*
X156740857Y-73382285D01*
X156788476Y-73382285D01*
X156883714Y-73429904D01*
X156931333Y-73477523D01*
X156978952Y-73572761D01*
X156978952Y-73763238D01*
X157026571Y-73858476D01*
X157074190Y-73906095D01*
X157169428Y-73953714D01*
X157359904Y-73953714D01*
X157455142Y-73906095D01*
X157502761Y-73858476D01*
X157550380Y-73763238D01*
X157550380Y-73572761D01*
X157502761Y-73477523D01*
X157455142Y-73429904D01*
X157359904Y-73382285D01*
X157169428Y-73382285D01*
X157074190Y-73429904D01*
X157026571Y-73477523D01*
X156978952Y-73572761D01*
%TO.C,D7*%
X160852380Y-74906095D02*
X159852380Y-74906095D01*
X159852380Y-74668000D01*
X159900000Y-74525142D01*
X159995238Y-74429904D01*
X160090476Y-74382285D01*
X160280952Y-74334666D01*
X160423809Y-74334666D01*
X160614285Y-74382285D01*
X160709523Y-74429904D01*
X160804761Y-74525142D01*
X160852380Y-74668000D01*
X160852380Y-74906095D01*
X159852380Y-74001333D02*
X159852380Y-73334666D01*
X160852380Y-73763238D01*
%TO.C,D6*%
X164154380Y-74906095D02*
X163154380Y-74906095D01*
X163154380Y-74668000D01*
X163202000Y-74525142D01*
X163297238Y-74429904D01*
X163392476Y-74382285D01*
X163582952Y-74334666D01*
X163725809Y-74334666D01*
X163916285Y-74382285D01*
X164011523Y-74429904D01*
X164106761Y-74525142D01*
X164154380Y-74668000D01*
X164154380Y-74906095D01*
X163154380Y-73477523D02*
X163154380Y-73668000D01*
X163202000Y-73763238D01*
X163249619Y-73810857D01*
X163392476Y-73906095D01*
X163582952Y-73953714D01*
X163963904Y-73953714D01*
X164059142Y-73906095D01*
X164106761Y-73858476D01*
X164154380Y-73763238D01*
X164154380Y-73572761D01*
X164106761Y-73477523D01*
X164059142Y-73429904D01*
X163963904Y-73382285D01*
X163725809Y-73382285D01*
X163630571Y-73429904D01*
X163582952Y-73477523D01*
X163535333Y-73572761D01*
X163535333Y-73763238D01*
X163582952Y-73858476D01*
X163630571Y-73906095D01*
X163725809Y-73953714D01*
%TO.C,D5*%
X167456380Y-74906095D02*
X166456380Y-74906095D01*
X166456380Y-74668000D01*
X166504000Y-74525142D01*
X166599238Y-74429904D01*
X166694476Y-74382285D01*
X166884952Y-74334666D01*
X167027809Y-74334666D01*
X167218285Y-74382285D01*
X167313523Y-74429904D01*
X167408761Y-74525142D01*
X167456380Y-74668000D01*
X167456380Y-74906095D01*
X166456380Y-73429904D02*
X166456380Y-73906095D01*
X166932571Y-73953714D01*
X166884952Y-73906095D01*
X166837333Y-73810857D01*
X166837333Y-73572761D01*
X166884952Y-73477523D01*
X166932571Y-73429904D01*
X167027809Y-73382285D01*
X167265904Y-73382285D01*
X167361142Y-73429904D01*
X167408761Y-73477523D01*
X167456380Y-73572761D01*
X167456380Y-73810857D01*
X167408761Y-73906095D01*
X167361142Y-73953714D01*
%TO.C,D4*%
X170758380Y-74906095D02*
X169758380Y-74906095D01*
X169758380Y-74668000D01*
X169806000Y-74525142D01*
X169901238Y-74429904D01*
X169996476Y-74382285D01*
X170186952Y-74334666D01*
X170329809Y-74334666D01*
X170520285Y-74382285D01*
X170615523Y-74429904D01*
X170710761Y-74525142D01*
X170758380Y-74668000D01*
X170758380Y-74906095D01*
X170091714Y-73477523D02*
X170758380Y-73477523D01*
X169710761Y-73715619D02*
X170425047Y-73953714D01*
X170425047Y-73334666D01*
%TO.C,D3*%
X174060380Y-74906095D02*
X173060380Y-74906095D01*
X173060380Y-74668000D01*
X173108000Y-74525142D01*
X173203238Y-74429904D01*
X173298476Y-74382285D01*
X173488952Y-74334666D01*
X173631809Y-74334666D01*
X173822285Y-74382285D01*
X173917523Y-74429904D01*
X174012761Y-74525142D01*
X174060380Y-74668000D01*
X174060380Y-74906095D01*
X173060380Y-74001333D02*
X173060380Y-73382285D01*
X173441333Y-73715619D01*
X173441333Y-73572761D01*
X173488952Y-73477523D01*
X173536571Y-73429904D01*
X173631809Y-73382285D01*
X173869904Y-73382285D01*
X173965142Y-73429904D01*
X174012761Y-73477523D01*
X174060380Y-73572761D01*
X174060380Y-73858476D01*
X174012761Y-73953714D01*
X173965142Y-74001333D01*
%TO.C,D2*%
X177616380Y-74906095D02*
X176616380Y-74906095D01*
X176616380Y-74668000D01*
X176664000Y-74525142D01*
X176759238Y-74429904D01*
X176854476Y-74382285D01*
X177044952Y-74334666D01*
X177187809Y-74334666D01*
X177378285Y-74382285D01*
X177473523Y-74429904D01*
X177568761Y-74525142D01*
X177616380Y-74668000D01*
X177616380Y-74906095D01*
X176711619Y-73953714D02*
X176664000Y-73906095D01*
X176616380Y-73810857D01*
X176616380Y-73572761D01*
X176664000Y-73477523D01*
X176711619Y-73429904D01*
X176806857Y-73382285D01*
X176902095Y-73382285D01*
X177044952Y-73429904D01*
X177616380Y-74001333D01*
X177616380Y-73382285D01*
%TO.C,D1*%
X180918380Y-73636095D02*
X179918380Y-73636095D01*
X179918380Y-73398000D01*
X179966000Y-73255142D01*
X180061238Y-73159904D01*
X180156476Y-73112285D01*
X180346952Y-73064666D01*
X180489809Y-73064666D01*
X180680285Y-73112285D01*
X180775523Y-73159904D01*
X180870761Y-73255142D01*
X180918380Y-73398000D01*
X180918380Y-73636095D01*
X180918380Y-72112285D02*
X180918380Y-72683714D01*
X180918380Y-72398000D02*
X179918380Y-72398000D01*
X180061238Y-72493238D01*
X180156476Y-72588476D01*
X180204095Y-72683714D01*
%TO.C,C10*%
X109323142Y-120276857D02*
X109370761Y-120324476D01*
X109418380Y-120467333D01*
X109418380Y-120562571D01*
X109370761Y-120705428D01*
X109275523Y-120800666D01*
X109180285Y-120848285D01*
X108989809Y-120895904D01*
X108846952Y-120895904D01*
X108656476Y-120848285D01*
X108561238Y-120800666D01*
X108466000Y-120705428D01*
X108418380Y-120562571D01*
X108418380Y-120467333D01*
X108466000Y-120324476D01*
X108513619Y-120276857D01*
X109418380Y-119324476D02*
X109418380Y-119895904D01*
X109418380Y-119610190D02*
X108418380Y-119610190D01*
X108561238Y-119705428D01*
X108656476Y-119800666D01*
X108704095Y-119895904D01*
X108418380Y-118705428D02*
X108418380Y-118610190D01*
X108466000Y-118514952D01*
X108513619Y-118467333D01*
X108608857Y-118419714D01*
X108799333Y-118372095D01*
X109037428Y-118372095D01*
X109227904Y-118419714D01*
X109323142Y-118467333D01*
X109370761Y-118514952D01*
X109418380Y-118610190D01*
X109418380Y-118705428D01*
X109370761Y-118800666D01*
X109323142Y-118848285D01*
X109227904Y-118895904D01*
X109037428Y-118943523D01*
X108799333Y-118943523D01*
X108608857Y-118895904D01*
X108513619Y-118848285D01*
X108466000Y-118800666D01*
X108418380Y-118705428D01*
%TO.C,C7*%
X109451142Y-107354666D02*
X109498761Y-107402285D01*
X109546380Y-107545142D01*
X109546380Y-107640380D01*
X109498761Y-107783238D01*
X109403523Y-107878476D01*
X109308285Y-107926095D01*
X109117809Y-107973714D01*
X108974952Y-107973714D01*
X108784476Y-107926095D01*
X108689238Y-107878476D01*
X108594000Y-107783238D01*
X108546380Y-107640380D01*
X108546380Y-107545142D01*
X108594000Y-107402285D01*
X108641619Y-107354666D01*
X108546380Y-107021333D02*
X108546380Y-106354666D01*
X109546380Y-106783238D01*
%TO.C,R17*%
X123642380Y-85097857D02*
X123166190Y-85431190D01*
X123642380Y-85669285D02*
X122642380Y-85669285D01*
X122642380Y-85288333D01*
X122690000Y-85193095D01*
X122737619Y-85145476D01*
X122832857Y-85097857D01*
X122975714Y-85097857D01*
X123070952Y-85145476D01*
X123118571Y-85193095D01*
X123166190Y-85288333D01*
X123166190Y-85669285D01*
X123642380Y-84145476D02*
X123642380Y-84716904D01*
X123642380Y-84431190D02*
X122642380Y-84431190D01*
X122785238Y-84526428D01*
X122880476Y-84621666D01*
X122928095Y-84716904D01*
X122642380Y-83812142D02*
X122642380Y-83145476D01*
X123642380Y-83574047D01*
%TO.C,R16*%
X157550380Y-78883857D02*
X157074190Y-79217190D01*
X157550380Y-79455285D02*
X156550380Y-79455285D01*
X156550380Y-79074333D01*
X156598000Y-78979095D01*
X156645619Y-78931476D01*
X156740857Y-78883857D01*
X156883714Y-78883857D01*
X156978952Y-78931476D01*
X157026571Y-78979095D01*
X157074190Y-79074333D01*
X157074190Y-79455285D01*
X157550380Y-77931476D02*
X157550380Y-78502904D01*
X157550380Y-78217190D02*
X156550380Y-78217190D01*
X156693238Y-78312428D01*
X156788476Y-78407666D01*
X156836095Y-78502904D01*
X156550380Y-77074333D02*
X156550380Y-77264809D01*
X156598000Y-77360047D01*
X156645619Y-77407666D01*
X156788476Y-77502904D01*
X156978952Y-77550523D01*
X157359904Y-77550523D01*
X157455142Y-77502904D01*
X157502761Y-77455285D01*
X157550380Y-77360047D01*
X157550380Y-77169571D01*
X157502761Y-77074333D01*
X157455142Y-77026714D01*
X157359904Y-76979095D01*
X157121809Y-76979095D01*
X157026571Y-77026714D01*
X156978952Y-77074333D01*
X156931333Y-77169571D01*
X156931333Y-77360047D01*
X156978952Y-77455285D01*
X157026571Y-77502904D01*
X157121809Y-77550523D01*
%TO.C,R15*%
X160852380Y-78874857D02*
X160376190Y-79208190D01*
X160852380Y-79446285D02*
X159852380Y-79446285D01*
X159852380Y-79065333D01*
X159900000Y-78970095D01*
X159947619Y-78922476D01*
X160042857Y-78874857D01*
X160185714Y-78874857D01*
X160280952Y-78922476D01*
X160328571Y-78970095D01*
X160376190Y-79065333D01*
X160376190Y-79446285D01*
X160852380Y-77922476D02*
X160852380Y-78493904D01*
X160852380Y-78208190D02*
X159852380Y-78208190D01*
X159995238Y-78303428D01*
X160090476Y-78398666D01*
X160138095Y-78493904D01*
X159852380Y-77017714D02*
X159852380Y-77493904D01*
X160328571Y-77541523D01*
X160280952Y-77493904D01*
X160233333Y-77398666D01*
X160233333Y-77160571D01*
X160280952Y-77065333D01*
X160328571Y-77017714D01*
X160423809Y-76970095D01*
X160661904Y-76970095D01*
X160757142Y-77017714D01*
X160804761Y-77065333D01*
X160852380Y-77160571D01*
X160852380Y-77398666D01*
X160804761Y-77493904D01*
X160757142Y-77541523D01*
%TO.C,R14*%
X164154380Y-78874857D02*
X163678190Y-79208190D01*
X164154380Y-79446285D02*
X163154380Y-79446285D01*
X163154380Y-79065333D01*
X163202000Y-78970095D01*
X163249619Y-78922476D01*
X163344857Y-78874857D01*
X163487714Y-78874857D01*
X163582952Y-78922476D01*
X163630571Y-78970095D01*
X163678190Y-79065333D01*
X163678190Y-79446285D01*
X164154380Y-77922476D02*
X164154380Y-78493904D01*
X164154380Y-78208190D02*
X163154380Y-78208190D01*
X163297238Y-78303428D01*
X163392476Y-78398666D01*
X163440095Y-78493904D01*
X163487714Y-77065333D02*
X164154380Y-77065333D01*
X163106761Y-77303428D02*
X163821047Y-77541523D01*
X163821047Y-76922476D01*
%TO.C,R13*%
X167456380Y-78874857D02*
X166980190Y-79208190D01*
X167456380Y-79446285D02*
X166456380Y-79446285D01*
X166456380Y-79065333D01*
X166504000Y-78970095D01*
X166551619Y-78922476D01*
X166646857Y-78874857D01*
X166789714Y-78874857D01*
X166884952Y-78922476D01*
X166932571Y-78970095D01*
X166980190Y-79065333D01*
X166980190Y-79446285D01*
X167456380Y-77922476D02*
X167456380Y-78493904D01*
X167456380Y-78208190D02*
X166456380Y-78208190D01*
X166599238Y-78303428D01*
X166694476Y-78398666D01*
X166742095Y-78493904D01*
X166456380Y-77589142D02*
X166456380Y-76970095D01*
X166837333Y-77303428D01*
X166837333Y-77160571D01*
X166884952Y-77065333D01*
X166932571Y-77017714D01*
X167027809Y-76970095D01*
X167265904Y-76970095D01*
X167361142Y-77017714D01*
X167408761Y-77065333D01*
X167456380Y-77160571D01*
X167456380Y-77446285D01*
X167408761Y-77541523D01*
X167361142Y-77589142D01*
%TO.C,R12*%
X170758380Y-78874857D02*
X170282190Y-79208190D01*
X170758380Y-79446285D02*
X169758380Y-79446285D01*
X169758380Y-79065333D01*
X169806000Y-78970095D01*
X169853619Y-78922476D01*
X169948857Y-78874857D01*
X170091714Y-78874857D01*
X170186952Y-78922476D01*
X170234571Y-78970095D01*
X170282190Y-79065333D01*
X170282190Y-79446285D01*
X170758380Y-77922476D02*
X170758380Y-78493904D01*
X170758380Y-78208190D02*
X169758380Y-78208190D01*
X169901238Y-78303428D01*
X169996476Y-78398666D01*
X170044095Y-78493904D01*
X169853619Y-77541523D02*
X169806000Y-77493904D01*
X169758380Y-77398666D01*
X169758380Y-77160571D01*
X169806000Y-77065333D01*
X169853619Y-77017714D01*
X169948857Y-76970095D01*
X170044095Y-76970095D01*
X170186952Y-77017714D01*
X170758380Y-77589142D01*
X170758380Y-76970095D01*
%TO.C,R11*%
X174060380Y-78874857D02*
X173584190Y-79208190D01*
X174060380Y-79446285D02*
X173060380Y-79446285D01*
X173060380Y-79065333D01*
X173108000Y-78970095D01*
X173155619Y-78922476D01*
X173250857Y-78874857D01*
X173393714Y-78874857D01*
X173488952Y-78922476D01*
X173536571Y-78970095D01*
X173584190Y-79065333D01*
X173584190Y-79446285D01*
X174060380Y-77922476D02*
X174060380Y-78493904D01*
X174060380Y-78208190D02*
X173060380Y-78208190D01*
X173203238Y-78303428D01*
X173298476Y-78398666D01*
X173346095Y-78493904D01*
X174060380Y-76970095D02*
X174060380Y-77541523D01*
X174060380Y-77255809D02*
X173060380Y-77255809D01*
X173203238Y-77351047D01*
X173298476Y-77446285D01*
X173346095Y-77541523D01*
%TO.C,R10*%
X177616380Y-78874857D02*
X177140190Y-79208190D01*
X177616380Y-79446285D02*
X176616380Y-79446285D01*
X176616380Y-79065333D01*
X176664000Y-78970095D01*
X176711619Y-78922476D01*
X176806857Y-78874857D01*
X176949714Y-78874857D01*
X177044952Y-78922476D01*
X177092571Y-78970095D01*
X177140190Y-79065333D01*
X177140190Y-79446285D01*
X177616380Y-77922476D02*
X177616380Y-78493904D01*
X177616380Y-78208190D02*
X176616380Y-78208190D01*
X176759238Y-78303428D01*
X176854476Y-78398666D01*
X176902095Y-78493904D01*
X176616380Y-77303428D02*
X176616380Y-77208190D01*
X176664000Y-77112952D01*
X176711619Y-77065333D01*
X176806857Y-77017714D01*
X176997333Y-76970095D01*
X177235428Y-76970095D01*
X177425904Y-77017714D01*
X177521142Y-77065333D01*
X177568761Y-77112952D01*
X177616380Y-77208190D01*
X177616380Y-77303428D01*
X177568761Y-77398666D01*
X177521142Y-77446285D01*
X177425904Y-77493904D01*
X177235428Y-77541523D01*
X176997333Y-77541523D01*
X176806857Y-77493904D01*
X176711619Y-77446285D01*
X176664000Y-77398666D01*
X176616380Y-77303428D01*
%TO.C,R9*%
X180918380Y-79033666D02*
X180442190Y-79367000D01*
X180918380Y-79605095D02*
X179918380Y-79605095D01*
X179918380Y-79224142D01*
X179966000Y-79128904D01*
X180013619Y-79081285D01*
X180108857Y-79033666D01*
X180251714Y-79033666D01*
X180346952Y-79081285D01*
X180394571Y-79128904D01*
X180442190Y-79224142D01*
X180442190Y-79605095D01*
X180918380Y-78557476D02*
X180918380Y-78367000D01*
X180870761Y-78271761D01*
X180823142Y-78224142D01*
X180680285Y-78128904D01*
X180489809Y-78081285D01*
X180108857Y-78081285D01*
X180013619Y-78128904D01*
X179966000Y-78176523D01*
X179918380Y-78271761D01*
X179918380Y-78462238D01*
X179966000Y-78557476D01*
X180013619Y-78605095D01*
X180108857Y-78652714D01*
X180346952Y-78652714D01*
X180442190Y-78605095D01*
X180489809Y-78557476D01*
X180537428Y-78462238D01*
X180537428Y-78271761D01*
X180489809Y-78176523D01*
X180442190Y-78128904D01*
X180346952Y-78081285D01*
%TO.C,R7*%
X143987333Y-105226380D02*
X143654000Y-104750190D01*
X143415904Y-105226380D02*
X143415904Y-104226380D01*
X143796857Y-104226380D01*
X143892095Y-104274000D01*
X143939714Y-104321619D01*
X143987333Y-104416857D01*
X143987333Y-104559714D01*
X143939714Y-104654952D01*
X143892095Y-104702571D01*
X143796857Y-104750190D01*
X143415904Y-104750190D01*
X144320666Y-104226380D02*
X144987333Y-104226380D01*
X144558761Y-105226380D01*
%TO.C,R6*%
X141930380Y-81827666D02*
X141454190Y-82161000D01*
X141930380Y-82399095D02*
X140930380Y-82399095D01*
X140930380Y-82018142D01*
X140978000Y-81922904D01*
X141025619Y-81875285D01*
X141120857Y-81827666D01*
X141263714Y-81827666D01*
X141358952Y-81875285D01*
X141406571Y-81922904D01*
X141454190Y-82018142D01*
X141454190Y-82399095D01*
X140930380Y-80970523D02*
X140930380Y-81161000D01*
X140978000Y-81256238D01*
X141025619Y-81303857D01*
X141168476Y-81399095D01*
X141358952Y-81446714D01*
X141739904Y-81446714D01*
X141835142Y-81399095D01*
X141882761Y-81351476D01*
X141930380Y-81256238D01*
X141930380Y-81065761D01*
X141882761Y-80970523D01*
X141835142Y-80922904D01*
X141739904Y-80875285D01*
X141501809Y-80875285D01*
X141406571Y-80922904D01*
X141358952Y-80970523D01*
X141311333Y-81065761D01*
X141311333Y-81256238D01*
X141358952Y-81351476D01*
X141406571Y-81399095D01*
X141501809Y-81446714D01*
%TO.C,U3*%
X130422380Y-115315904D02*
X131231904Y-115315904D01*
X131327142Y-115268285D01*
X131374761Y-115220666D01*
X131422380Y-115125428D01*
X131422380Y-114934952D01*
X131374761Y-114839714D01*
X131327142Y-114792095D01*
X131231904Y-114744476D01*
X130422380Y-114744476D01*
X130422380Y-114363523D02*
X130422380Y-113744476D01*
X130803333Y-114077809D01*
X130803333Y-113934952D01*
X130850952Y-113839714D01*
X130898571Y-113792095D01*
X130993809Y-113744476D01*
X131231904Y-113744476D01*
X131327142Y-113792095D01*
X131374761Y-113839714D01*
X131422380Y-113934952D01*
X131422380Y-114220666D01*
X131374761Y-114315904D01*
X131327142Y-114363523D01*
%TO.C,U1*%
D22*
X124459483Y-72603941D02*
X124459483Y-73414115D01*
X124507140Y-73509429D01*
X124554798Y-73557086D01*
X124650112Y-73604744D01*
X124840741Y-73604744D01*
X124936056Y-73557086D01*
X124983713Y-73509429D01*
X125031370Y-73414115D01*
X125031370Y-72603941D01*
X126032173Y-73604744D02*
X125460286Y-73604744D01*
X125746230Y-73604744D02*
X125746230Y-72603941D01*
X125650915Y-72746913D01*
X125555601Y-72842227D01*
X125460286Y-72889884D01*
%TO.C,FB1*%
D20*
X112822666Y-80318571D02*
X112489333Y-80318571D01*
X112489333Y-80842380D02*
X112489333Y-79842380D01*
X112965523Y-79842380D01*
X113679809Y-80318571D02*
X113822666Y-80366190D01*
X113870285Y-80413809D01*
X113917904Y-80509047D01*
X113917904Y-80651904D01*
X113870285Y-80747142D01*
X113822666Y-80794761D01*
X113727428Y-80842380D01*
X113346476Y-80842380D01*
X113346476Y-79842380D01*
X113679809Y-79842380D01*
X113775047Y-79890000D01*
X113822666Y-79937619D01*
X113870285Y-80032857D01*
X113870285Y-80128095D01*
X113822666Y-80223333D01*
X113775047Y-80270952D01*
X113679809Y-80318571D01*
X113346476Y-80318571D01*
X114870285Y-80842380D02*
X114298857Y-80842380D01*
X114584571Y-80842380D02*
X114584571Y-79842380D01*
X114489333Y-79985238D01*
X114394095Y-80080476D01*
X114298857Y-80128095D01*
%TO.C,X1*%
X107910380Y-113585523D02*
X108910380Y-112918857D01*
X107910380Y-112918857D02*
X108910380Y-113585523D01*
X108910380Y-112014095D02*
X108910380Y-112585523D01*
X108910380Y-112299809D02*
X107910380Y-112299809D01*
X108053238Y-112395047D01*
X108148476Y-112490285D01*
X108196095Y-112585523D01*
%TO.C,R2*%
X161876333Y-131263380D02*
X161543000Y-130787190D01*
X161304904Y-131263380D02*
X161304904Y-130263380D01*
X161685857Y-130263380D01*
X161781095Y-130311000D01*
X161828714Y-130358619D01*
X161876333Y-130453857D01*
X161876333Y-130596714D01*
X161828714Y-130691952D01*
X161781095Y-130739571D01*
X161685857Y-130787190D01*
X161304904Y-130787190D01*
X162257285Y-130358619D02*
X162304904Y-130311000D01*
X162400142Y-130263380D01*
X162638238Y-130263380D01*
X162733476Y-130311000D01*
X162781095Y-130358619D01*
X162828714Y-130453857D01*
X162828714Y-130549095D01*
X162781095Y-130691952D01*
X162209666Y-131263380D01*
X162828714Y-131263380D01*
%TO.C,J5*%
D23*
X181823419Y-80851918D02*
X182538959Y-80851918D01*
X182682067Y-80899621D01*
X182777472Y-80995026D01*
X182825175Y-81138134D01*
X182825175Y-81233540D01*
X181823419Y-79897865D02*
X181823419Y-80374892D01*
X182300446Y-80422594D01*
X182252743Y-80374892D01*
X182205040Y-80279486D01*
X182205040Y-80040973D01*
X182252743Y-79945568D01*
X182300446Y-79897865D01*
X182395851Y-79850162D01*
X182634364Y-79850162D01*
X182729770Y-79897865D01*
X182777472Y-79945568D01*
X182825175Y-80040973D01*
X182825175Y-80279486D01*
X182777472Y-80374892D01*
X182729770Y-80422594D01*
%TD*%
M02*
