M48
; DRILL file {KiCad (5.1.6)-1} date 11/14/20 18:00:07
; FORMAT={-:-/ absolute / inch / decimal}
; #@! TF.CreationDate,2020-11-14T18:00:07-05:00
; #@! TF.GenerationSoftware,Kicad,Pcbnew,(5.1.6)-1
FMAT,2
INCH
T1C0.0157
T2C0.0236
T3C0.0276
T4C0.0394
T5C0.0630
T6C0.0709
T7C0.1260
%
G90
G05
T1
X3.78Y-3.47
X3.9225Y-4.865
X3.93Y-3.48
X3.94Y-3.74
X3.96Y-3.51
X4.01Y-3.39
X4.0204Y-3.0635
X4.06Y-3.51
X4.11Y-3.23
X4.15Y-2.95
X4.2Y-2.85
X4.2Y-3.1
X4.21Y-3.675
X4.22Y-2.95
X4.22Y-3.45
X4.23Y-3.575
X4.3Y-3.48
X4.33Y-3.09
X4.33Y-3.68
X4.36Y-4.13
X4.37Y-2.83
X4.41Y-4.66
X4.53Y-3.63
X4.55Y-4.075
X4.555Y-4.55
X4.585Y-4.255
X4.6275Y-4.8675
X4.66Y-3.325
X4.68Y-4.5171
X4.68Y-4.945
X4.6921Y-4.3334
X4.695Y-3.515
X4.72Y-4.385
X4.735Y-3.615
X4.745Y-4.575
X4.75Y-3.735
X4.76Y-4.33
X4.76Y-4.38
X4.78Y-2.85
X4.79Y-3.765
X4.79Y-3.955
X4.79Y-4.14
X4.795Y-4.565
X4.8096Y-4.01
X4.8258Y-4.6542
X4.8278Y-4.1568
X4.84Y-4.8242
X4.85Y-4.1893
X4.87Y-2.62
X4.885Y-3.805
X4.895Y-3.74
X4.935Y-4.66
X4.9569Y-4.97
X4.9607Y-4.095
X4.965Y-3.885
X4.9936Y-4.85
X4.995Y-4.665
X5.0Y-2.62
X5.005Y-4.895
X5.0416Y-4.0953
X5.0529Y-4.7528
X5.06Y-3.74
X5.07Y-4.245
X5.08Y-4.72
X5.11Y-3.63
X5.1408Y-4.3708
X5.1482Y-4.4832
X5.15Y-3.86
X5.17Y-5.14
X5.17Y-5.18
X5.17Y-5.22
X5.1792Y-4.5858
X5.18Y-4.67
X5.24Y-3.67
X5.305Y-4.65
X5.3129Y-4.515
X5.35Y-4.66
X5.37Y-4.295
X5.37Y-4.435
X5.385Y-4.775
X5.435Y-3.565
X5.445Y-4.745
X5.5925Y-5.0225
X5.625Y-3.835
X5.7Y-4.9
X5.735Y-3.78
X5.77Y-4.095
X5.8Y-5.24
X5.9Y-5.19
X5.905Y-4.445
X5.985Y-4.365
X6.0Y-5.17
X6.045Y-4.05
X6.09Y-3.84
X6.105Y-4.585
X6.12Y-2.83
X6.25Y-2.83
X6.38Y-2.83
X6.38Y-4.37
X6.4Y-5.39
X6.44Y-4.24
X6.44Y-5.45
X6.46Y-4.2
X6.47Y-5.52
X6.51Y-2.83
X6.5229Y-4.35
X6.55Y-4.14
X6.56Y-5.47
X6.58Y-4.1
X6.59Y-5.25
X6.62Y-5.28
X6.64Y-2.83
X6.64Y-4.34
X6.675Y-4.645
X6.745Y-4.755
X6.77Y-2.83
X6.91Y-2.83
X6.91Y-4.75
X7.035Y-4.885
X7.04Y-2.83
T3
X6.219Y-3.7693
X6.219Y-3.8283
X6.219Y-3.8874
X6.219Y-3.9464
X6.219Y-4.0055
X6.219Y-4.0645
X6.219Y-4.1236
X6.219Y-4.1826
X6.219Y-4.2417
X6.219Y-4.3007
T4
X5.92Y-5.085
X6.02Y-5.085
X6.12Y-5.085
X4.62Y-2.645
X4.62Y-2.745
X3.84Y-3.56
X3.84Y-3.66
X3.84Y-3.76
X3.84Y-3.86
X3.84Y-3.96
X5.365Y-2.645
X5.365Y-2.745
X5.801Y-2.655
X5.801Y-2.755
X5.801Y-2.855
X5.801Y-2.955
X5.801Y-3.055
X5.801Y-3.155
X5.801Y-3.255
X5.801Y-3.355
X4.62Y-5.38
X4.72Y-5.38
X4.82Y-5.38
X4.92Y-5.38
X5.02Y-5.38
X5.12Y-5.38
X5.22Y-5.38
X5.32Y-5.38
X5.42Y-5.38
X5.52Y-5.38
X5.62Y-5.38
X5.72Y-5.38
X5.82Y-5.38
X5.92Y-5.38
X6.02Y-5.38
X6.12Y-5.38
X4.625Y-2.895
X4.625Y-2.995
X4.625Y-3.095
X5.185Y-2.705
X5.185Y-2.805
X5.185Y-2.905
X5.2547Y-4.4116
X5.2547Y-4.51
X5.2547Y-4.6084
X5.8256Y-4.4116
X5.8256Y-4.6084
X4.43Y-3.41
X4.43Y-3.51
T5
X6.2958Y-3.3539
X6.2958Y-4.7161
T6
X5.55Y-4.2895
X5.55Y-4.7305
T7
X7.03Y-5.365
X7.025Y-2.715
X3.84Y-2.71
X3.84Y-5.365
T2
G00X4.1433Y-2.7556
M15
G01X4.1433Y-2.7122
M16
G05
G00X4.1433Y-2.8953
M15
G01X4.1433Y-2.852
M16
G05
G00X4.4267Y-2.7556
M15
G01X4.4267Y-2.7122
M16
G05
G00X4.4267Y-2.8953
M15
G01X4.4267Y-2.852
M16
G05
T0
M30
