%TF.GenerationSoftware,KiCad,Pcbnew,(5.1.6)-1*%
%TF.CreationDate,2020-11-14T18:00:02-05:00*%
%TF.ProjectId,F0DisplayBoard,46304469-7370-46c6-9179-426f6172642e,rev?*%
%TF.SameCoordinates,Original*%
%TF.FileFunction,Paste,Top*%
%TF.FilePolarity,Positive*%
%FSLAX46Y46*%
G04 Gerber Fmt 4.6, Leading zero omitted, Abs format (unit mm)*
G04 Created by KiCad (PCBNEW (5.1.6)-1) date 2020-11-14 18:00:02*
%MOMM*%
%LPD*%
G01*
G04 APERTURE LIST*
%ADD10R,0.300000X1.475000*%
%ADD11R,1.475000X0.300000*%
%ADD12R,0.431800X1.511300*%
%ADD13R,0.863600X2.209800*%
%ADD14R,1.800000X3.900000*%
%ADD15R,0.400000X1.700000*%
%ADD16R,1.860000X3.190000*%
%ADD17R,1.860000X0.900000*%
%ADD18R,1.200000X3.500000*%
G04 APERTURE END LIST*
D10*
%TO.C,IC1*%
X119313000Y-108435000D03*
X119813000Y-108435000D03*
X120313000Y-108435000D03*
X120813000Y-108435000D03*
X121313000Y-108435000D03*
X121813000Y-108435000D03*
X122313000Y-108435000D03*
X122813000Y-108435000D03*
X123313000Y-108435000D03*
X123813000Y-108435000D03*
X124313000Y-108435000D03*
X124813000Y-108435000D03*
X125313000Y-108435000D03*
X125813000Y-108435000D03*
X126313000Y-108435000D03*
X126813000Y-108435000D03*
D11*
X128801000Y-110423000D03*
X128801000Y-110923000D03*
X128801000Y-111423000D03*
X128801000Y-111923000D03*
X128801000Y-112423000D03*
X128801000Y-112923000D03*
X128801000Y-113423000D03*
X128801000Y-113923000D03*
X128801000Y-114423000D03*
X128801000Y-114923000D03*
X128801000Y-115423000D03*
X128801000Y-115923000D03*
X128801000Y-116423000D03*
X128801000Y-116923000D03*
X128801000Y-117423000D03*
X128801000Y-117923000D03*
D10*
X126813000Y-119911000D03*
X126313000Y-119911000D03*
X125813000Y-119911000D03*
X125313000Y-119911000D03*
X124813000Y-119911000D03*
X124313000Y-119911000D03*
X123813000Y-119911000D03*
X123313000Y-119911000D03*
X122813000Y-119911000D03*
X122313000Y-119911000D03*
X121813000Y-119911000D03*
X121313000Y-119911000D03*
X120813000Y-119911000D03*
X120313000Y-119911000D03*
X119813000Y-119911000D03*
X119313000Y-119911000D03*
D11*
X117325000Y-117923000D03*
X117325000Y-117423000D03*
X117325000Y-116923000D03*
X117325000Y-116423000D03*
X117325000Y-115923000D03*
X117325000Y-115423000D03*
X117325000Y-114923000D03*
X117325000Y-114423000D03*
X117325000Y-113923000D03*
X117325000Y-113423000D03*
X117325000Y-112923000D03*
X117325000Y-112423000D03*
X117325000Y-111923000D03*
X117325000Y-111423000D03*
X117325000Y-110923000D03*
X117325000Y-110423000D03*
%TD*%
%TO.C,C11*%
G36*
G01*
X115448501Y-106175500D02*
X114548499Y-106175500D01*
G75*
G02*
X114298500Y-105925501I0J249999D01*
G01*
X114298500Y-105275499D01*
G75*
G02*
X114548499Y-105025500I249999J0D01*
G01*
X115448501Y-105025500D01*
G75*
G02*
X115698500Y-105275499I0J-249999D01*
G01*
X115698500Y-105925501D01*
G75*
G02*
X115448501Y-106175500I-249999J0D01*
G01*
G37*
G36*
G01*
X115448501Y-108225500D02*
X114548499Y-108225500D01*
G75*
G02*
X114298500Y-107975501I0J249999D01*
G01*
X114298500Y-107325499D01*
G75*
G02*
X114548499Y-107075500I249999J0D01*
G01*
X115448501Y-107075500D01*
G75*
G02*
X115698500Y-107325499I0J-249999D01*
G01*
X115698500Y-107975501D01*
G75*
G02*
X115448501Y-108225500I-249999J0D01*
G01*
G37*
%TD*%
D12*
%TO.C,U2*%
X101185000Y-76460350D03*
X101835001Y-76460350D03*
X102485000Y-76460350D03*
X103135001Y-76460350D03*
X103784999Y-76460350D03*
X104435001Y-76460350D03*
X105084999Y-76460350D03*
X105735001Y-76460350D03*
X106384999Y-76460350D03*
X107035001Y-76460350D03*
X107684999Y-76460350D03*
X108335000Y-76460350D03*
X108984999Y-76460350D03*
X109635000Y-76460350D03*
X109634998Y-83559650D03*
X108984999Y-83559650D03*
X108334998Y-83559650D03*
X107684999Y-83559650D03*
X107034998Y-83559650D03*
X106384999Y-83559650D03*
X105734998Y-83559650D03*
X105084999Y-83559650D03*
X104435001Y-83559650D03*
X103784999Y-83559650D03*
X103135001Y-83559650D03*
X102485000Y-83559650D03*
X101835001Y-83559650D03*
X101185000Y-83559650D03*
%TD*%
D13*
%TO.C,SW4*%
X127035999Y-95313500D03*
X131536001Y-95313500D03*
X131536001Y-102806500D03*
X127035999Y-102806500D03*
%TD*%
%TO.C,SW5*%
X127035999Y-83883500D03*
X131536001Y-83883500D03*
X131536001Y-91376500D03*
X127035999Y-91376500D03*
%TD*%
%TO.C,SW3*%
X139156001Y-102806500D03*
X134655999Y-102806500D03*
X134655999Y-95313500D03*
X139156001Y-95313500D03*
%TD*%
%TO.C,SW2*%
X139156001Y-91376500D03*
X134655999Y-91376500D03*
X134655999Y-83883500D03*
X139156001Y-83883500D03*
%TD*%
D14*
%TO.C,J1*%
X109989000Y-68441000D03*
X107689000Y-68441000D03*
D15*
X107539000Y-72641000D03*
X108189000Y-72641000D03*
X108839000Y-72641000D03*
X109489000Y-72641000D03*
X110139000Y-72641000D03*
%TD*%
D13*
%TO.C,SW1*%
X111160999Y-94043500D03*
X115661001Y-94043500D03*
X115661001Y-101536500D03*
X111160999Y-101536500D03*
%TD*%
%TO.C,R5*%
G36*
G01*
X119564999Y-98104000D02*
X120465001Y-98104000D01*
G75*
G02*
X120715000Y-98353999I0J-249999D01*
G01*
X120715000Y-99004001D01*
G75*
G02*
X120465001Y-99254000I-249999J0D01*
G01*
X119564999Y-99254000D01*
G75*
G02*
X119315000Y-99004001I0J249999D01*
G01*
X119315000Y-98353999D01*
G75*
G02*
X119564999Y-98104000I249999J0D01*
G01*
G37*
G36*
G01*
X119564999Y-96054000D02*
X120465001Y-96054000D01*
G75*
G02*
X120715000Y-96303999I0J-249999D01*
G01*
X120715000Y-96954001D01*
G75*
G02*
X120465001Y-97204000I-249999J0D01*
G01*
X119564999Y-97204000D01*
G75*
G02*
X119315000Y-96954001I0J249999D01*
G01*
X119315000Y-96303999D01*
G75*
G02*
X119564999Y-96054000I249999J0D01*
G01*
G37*
%TD*%
%TO.C,R1*%
G36*
G01*
X97986001Y-104715000D02*
X97085999Y-104715000D01*
G75*
G02*
X96836000Y-104465001I0J249999D01*
G01*
X96836000Y-103814999D01*
G75*
G02*
X97085999Y-103565000I249999J0D01*
G01*
X97986001Y-103565000D01*
G75*
G02*
X98236000Y-103814999I0J-249999D01*
G01*
X98236000Y-104465001D01*
G75*
G02*
X97986001Y-104715000I-249999J0D01*
G01*
G37*
G36*
G01*
X97986001Y-106765000D02*
X97085999Y-106765000D01*
G75*
G02*
X96836000Y-106515001I0J249999D01*
G01*
X96836000Y-105864999D01*
G75*
G02*
X97085999Y-105615000I249999J0D01*
G01*
X97986001Y-105615000D01*
G75*
G02*
X98236000Y-105864999I0J-249999D01*
G01*
X98236000Y-106515001D01*
G75*
G02*
X97986001Y-106765000I-249999J0D01*
G01*
G37*
%TD*%
%TO.C,D8*%
G36*
G01*
X154997999Y-74618000D02*
X155898001Y-74618000D01*
G75*
G02*
X156148000Y-74867999I0J-249999D01*
G01*
X156148000Y-75518001D01*
G75*
G02*
X155898001Y-75768000I-249999J0D01*
G01*
X154997999Y-75768000D01*
G75*
G02*
X154748000Y-75518001I0J249999D01*
G01*
X154748000Y-74867999D01*
G75*
G02*
X154997999Y-74618000I249999J0D01*
G01*
G37*
G36*
G01*
X154997999Y-72568000D02*
X155898001Y-72568000D01*
G75*
G02*
X156148000Y-72817999I0J-249999D01*
G01*
X156148000Y-73468001D01*
G75*
G02*
X155898001Y-73718000I-249999J0D01*
G01*
X154997999Y-73718000D01*
G75*
G02*
X154748000Y-73468001I0J249999D01*
G01*
X154748000Y-72817999D01*
G75*
G02*
X154997999Y-72568000I249999J0D01*
G01*
G37*
%TD*%
%TO.C,D7*%
G36*
G01*
X158299999Y-74618000D02*
X159200001Y-74618000D01*
G75*
G02*
X159450000Y-74867999I0J-249999D01*
G01*
X159450000Y-75518001D01*
G75*
G02*
X159200001Y-75768000I-249999J0D01*
G01*
X158299999Y-75768000D01*
G75*
G02*
X158050000Y-75518001I0J249999D01*
G01*
X158050000Y-74867999D01*
G75*
G02*
X158299999Y-74618000I249999J0D01*
G01*
G37*
G36*
G01*
X158299999Y-72568000D02*
X159200001Y-72568000D01*
G75*
G02*
X159450000Y-72817999I0J-249999D01*
G01*
X159450000Y-73468001D01*
G75*
G02*
X159200001Y-73718000I-249999J0D01*
G01*
X158299999Y-73718000D01*
G75*
G02*
X158050000Y-73468001I0J249999D01*
G01*
X158050000Y-72817999D01*
G75*
G02*
X158299999Y-72568000I249999J0D01*
G01*
G37*
%TD*%
%TO.C,D6*%
G36*
G01*
X161601999Y-74618000D02*
X162502001Y-74618000D01*
G75*
G02*
X162752000Y-74867999I0J-249999D01*
G01*
X162752000Y-75518001D01*
G75*
G02*
X162502001Y-75768000I-249999J0D01*
G01*
X161601999Y-75768000D01*
G75*
G02*
X161352000Y-75518001I0J249999D01*
G01*
X161352000Y-74867999D01*
G75*
G02*
X161601999Y-74618000I249999J0D01*
G01*
G37*
G36*
G01*
X161601999Y-72568000D02*
X162502001Y-72568000D01*
G75*
G02*
X162752000Y-72817999I0J-249999D01*
G01*
X162752000Y-73468001D01*
G75*
G02*
X162502001Y-73718000I-249999J0D01*
G01*
X161601999Y-73718000D01*
G75*
G02*
X161352000Y-73468001I0J249999D01*
G01*
X161352000Y-72817999D01*
G75*
G02*
X161601999Y-72568000I249999J0D01*
G01*
G37*
%TD*%
%TO.C,D5*%
G36*
G01*
X164903999Y-74618000D02*
X165804001Y-74618000D01*
G75*
G02*
X166054000Y-74867999I0J-249999D01*
G01*
X166054000Y-75518001D01*
G75*
G02*
X165804001Y-75768000I-249999J0D01*
G01*
X164903999Y-75768000D01*
G75*
G02*
X164654000Y-75518001I0J249999D01*
G01*
X164654000Y-74867999D01*
G75*
G02*
X164903999Y-74618000I249999J0D01*
G01*
G37*
G36*
G01*
X164903999Y-72568000D02*
X165804001Y-72568000D01*
G75*
G02*
X166054000Y-72817999I0J-249999D01*
G01*
X166054000Y-73468001D01*
G75*
G02*
X165804001Y-73718000I-249999J0D01*
G01*
X164903999Y-73718000D01*
G75*
G02*
X164654000Y-73468001I0J249999D01*
G01*
X164654000Y-72817999D01*
G75*
G02*
X164903999Y-72568000I249999J0D01*
G01*
G37*
%TD*%
%TO.C,D4*%
G36*
G01*
X168205999Y-74618000D02*
X169106001Y-74618000D01*
G75*
G02*
X169356000Y-74867999I0J-249999D01*
G01*
X169356000Y-75518001D01*
G75*
G02*
X169106001Y-75768000I-249999J0D01*
G01*
X168205999Y-75768000D01*
G75*
G02*
X167956000Y-75518001I0J249999D01*
G01*
X167956000Y-74867999D01*
G75*
G02*
X168205999Y-74618000I249999J0D01*
G01*
G37*
G36*
G01*
X168205999Y-72568000D02*
X169106001Y-72568000D01*
G75*
G02*
X169356000Y-72817999I0J-249999D01*
G01*
X169356000Y-73468001D01*
G75*
G02*
X169106001Y-73718000I-249999J0D01*
G01*
X168205999Y-73718000D01*
G75*
G02*
X167956000Y-73468001I0J249999D01*
G01*
X167956000Y-72817999D01*
G75*
G02*
X168205999Y-72568000I249999J0D01*
G01*
G37*
%TD*%
%TO.C,D3*%
G36*
G01*
X171507999Y-74618000D02*
X172408001Y-74618000D01*
G75*
G02*
X172658000Y-74867999I0J-249999D01*
G01*
X172658000Y-75518001D01*
G75*
G02*
X172408001Y-75768000I-249999J0D01*
G01*
X171507999Y-75768000D01*
G75*
G02*
X171258000Y-75518001I0J249999D01*
G01*
X171258000Y-74867999D01*
G75*
G02*
X171507999Y-74618000I249999J0D01*
G01*
G37*
G36*
G01*
X171507999Y-72568000D02*
X172408001Y-72568000D01*
G75*
G02*
X172658000Y-72817999I0J-249999D01*
G01*
X172658000Y-73468001D01*
G75*
G02*
X172408001Y-73718000I-249999J0D01*
G01*
X171507999Y-73718000D01*
G75*
G02*
X171258000Y-73468001I0J249999D01*
G01*
X171258000Y-72817999D01*
G75*
G02*
X171507999Y-72568000I249999J0D01*
G01*
G37*
%TD*%
%TO.C,D2*%
G36*
G01*
X175063999Y-74618000D02*
X175964001Y-74618000D01*
G75*
G02*
X176214000Y-74867999I0J-249999D01*
G01*
X176214000Y-75518001D01*
G75*
G02*
X175964001Y-75768000I-249999J0D01*
G01*
X175063999Y-75768000D01*
G75*
G02*
X174814000Y-75518001I0J249999D01*
G01*
X174814000Y-74867999D01*
G75*
G02*
X175063999Y-74618000I249999J0D01*
G01*
G37*
G36*
G01*
X175063999Y-72568000D02*
X175964001Y-72568000D01*
G75*
G02*
X176214000Y-72817999I0J-249999D01*
G01*
X176214000Y-73468001D01*
G75*
G02*
X175964001Y-73718000I-249999J0D01*
G01*
X175063999Y-73718000D01*
G75*
G02*
X174814000Y-73468001I0J249999D01*
G01*
X174814000Y-72817999D01*
G75*
G02*
X175063999Y-72568000I249999J0D01*
G01*
G37*
%TD*%
%TO.C,D1*%
G36*
G01*
X178365999Y-74627000D02*
X179266001Y-74627000D01*
G75*
G02*
X179516000Y-74876999I0J-249999D01*
G01*
X179516000Y-75527001D01*
G75*
G02*
X179266001Y-75777000I-249999J0D01*
G01*
X178365999Y-75777000D01*
G75*
G02*
X178116000Y-75527001I0J249999D01*
G01*
X178116000Y-74876999D01*
G75*
G02*
X178365999Y-74627000I249999J0D01*
G01*
G37*
G36*
G01*
X178365999Y-72577000D02*
X179266001Y-72577000D01*
G75*
G02*
X179516000Y-72826999I0J-249999D01*
G01*
X179516000Y-73477001D01*
G75*
G02*
X179266001Y-73727000I-249999J0D01*
G01*
X178365999Y-73727000D01*
G75*
G02*
X178116000Y-73477001I0J249999D01*
G01*
X178116000Y-72826999D01*
G75*
G02*
X178365999Y-72577000I249999J0D01*
G01*
G37*
%TD*%
%TO.C,C10*%
G36*
G01*
X110293999Y-118814000D02*
X111194001Y-118814000D01*
G75*
G02*
X111444000Y-119063999I0J-249999D01*
G01*
X111444000Y-119714001D01*
G75*
G02*
X111194001Y-119964000I-249999J0D01*
G01*
X110293999Y-119964000D01*
G75*
G02*
X110044000Y-119714001I0J249999D01*
G01*
X110044000Y-119063999D01*
G75*
G02*
X110293999Y-118814000I249999J0D01*
G01*
G37*
G36*
G01*
X110293999Y-116764000D02*
X111194001Y-116764000D01*
G75*
G02*
X111444000Y-117013999I0J-249999D01*
G01*
X111444000Y-117664001D01*
G75*
G02*
X111194001Y-117914000I-249999J0D01*
G01*
X110293999Y-117914000D01*
G75*
G02*
X110044000Y-117664001I0J249999D01*
G01*
X110044000Y-117013999D01*
G75*
G02*
X110293999Y-116764000I249999J0D01*
G01*
G37*
%TD*%
%TO.C,C7*%
G36*
G01*
X111194001Y-106738000D02*
X110293999Y-106738000D01*
G75*
G02*
X110044000Y-106488001I0J249999D01*
G01*
X110044000Y-105837999D01*
G75*
G02*
X110293999Y-105588000I249999J0D01*
G01*
X111194001Y-105588000D01*
G75*
G02*
X111444000Y-105837999I0J-249999D01*
G01*
X111444000Y-106488001D01*
G75*
G02*
X111194001Y-106738000I-249999J0D01*
G01*
G37*
G36*
G01*
X111194001Y-108788000D02*
X110293999Y-108788000D01*
G75*
G02*
X110044000Y-108538001I0J249999D01*
G01*
X110044000Y-107887999D01*
G75*
G02*
X110293999Y-107638000I249999J0D01*
G01*
X111194001Y-107638000D01*
G75*
G02*
X111444000Y-107887999I0J-249999D01*
G01*
X111444000Y-108538001D01*
G75*
G02*
X111194001Y-108788000I-249999J0D01*
G01*
G37*
%TD*%
%TO.C,R17*%
G36*
G01*
X125291001Y-84014000D02*
X124390999Y-84014000D01*
G75*
G02*
X124141000Y-83764001I0J249999D01*
G01*
X124141000Y-83113999D01*
G75*
G02*
X124390999Y-82864000I249999J0D01*
G01*
X125291001Y-82864000D01*
G75*
G02*
X125541000Y-83113999I0J-249999D01*
G01*
X125541000Y-83764001D01*
G75*
G02*
X125291001Y-84014000I-249999J0D01*
G01*
G37*
G36*
G01*
X125291001Y-86064000D02*
X124390999Y-86064000D01*
G75*
G02*
X124141000Y-85814001I0J249999D01*
G01*
X124141000Y-85163999D01*
G75*
G02*
X124390999Y-84914000I249999J0D01*
G01*
X125291001Y-84914000D01*
G75*
G02*
X125541000Y-85163999I0J-249999D01*
G01*
X125541000Y-85814001D01*
G75*
G02*
X125291001Y-86064000I-249999J0D01*
G01*
G37*
%TD*%
%TO.C,R16*%
G36*
G01*
X154997999Y-78691000D02*
X155898001Y-78691000D01*
G75*
G02*
X156148000Y-78940999I0J-249999D01*
G01*
X156148000Y-79591001D01*
G75*
G02*
X155898001Y-79841000I-249999J0D01*
G01*
X154997999Y-79841000D01*
G75*
G02*
X154748000Y-79591001I0J249999D01*
G01*
X154748000Y-78940999D01*
G75*
G02*
X154997999Y-78691000I249999J0D01*
G01*
G37*
G36*
G01*
X154997999Y-76641000D02*
X155898001Y-76641000D01*
G75*
G02*
X156148000Y-76890999I0J-249999D01*
G01*
X156148000Y-77541001D01*
G75*
G02*
X155898001Y-77791000I-249999J0D01*
G01*
X154997999Y-77791000D01*
G75*
G02*
X154748000Y-77541001I0J249999D01*
G01*
X154748000Y-76890999D01*
G75*
G02*
X154997999Y-76641000I249999J0D01*
G01*
G37*
%TD*%
%TO.C,R15*%
G36*
G01*
X158299999Y-78682000D02*
X159200001Y-78682000D01*
G75*
G02*
X159450000Y-78931999I0J-249999D01*
G01*
X159450000Y-79582001D01*
G75*
G02*
X159200001Y-79832000I-249999J0D01*
G01*
X158299999Y-79832000D01*
G75*
G02*
X158050000Y-79582001I0J249999D01*
G01*
X158050000Y-78931999D01*
G75*
G02*
X158299999Y-78682000I249999J0D01*
G01*
G37*
G36*
G01*
X158299999Y-76632000D02*
X159200001Y-76632000D01*
G75*
G02*
X159450000Y-76881999I0J-249999D01*
G01*
X159450000Y-77532001D01*
G75*
G02*
X159200001Y-77782000I-249999J0D01*
G01*
X158299999Y-77782000D01*
G75*
G02*
X158050000Y-77532001I0J249999D01*
G01*
X158050000Y-76881999D01*
G75*
G02*
X158299999Y-76632000I249999J0D01*
G01*
G37*
%TD*%
%TO.C,R14*%
G36*
G01*
X161601999Y-78682000D02*
X162502001Y-78682000D01*
G75*
G02*
X162752000Y-78931999I0J-249999D01*
G01*
X162752000Y-79582001D01*
G75*
G02*
X162502001Y-79832000I-249999J0D01*
G01*
X161601999Y-79832000D01*
G75*
G02*
X161352000Y-79582001I0J249999D01*
G01*
X161352000Y-78931999D01*
G75*
G02*
X161601999Y-78682000I249999J0D01*
G01*
G37*
G36*
G01*
X161601999Y-76632000D02*
X162502001Y-76632000D01*
G75*
G02*
X162752000Y-76881999I0J-249999D01*
G01*
X162752000Y-77532001D01*
G75*
G02*
X162502001Y-77782000I-249999J0D01*
G01*
X161601999Y-77782000D01*
G75*
G02*
X161352000Y-77532001I0J249999D01*
G01*
X161352000Y-76881999D01*
G75*
G02*
X161601999Y-76632000I249999J0D01*
G01*
G37*
%TD*%
%TO.C,R13*%
G36*
G01*
X164903999Y-78682000D02*
X165804001Y-78682000D01*
G75*
G02*
X166054000Y-78931999I0J-249999D01*
G01*
X166054000Y-79582001D01*
G75*
G02*
X165804001Y-79832000I-249999J0D01*
G01*
X164903999Y-79832000D01*
G75*
G02*
X164654000Y-79582001I0J249999D01*
G01*
X164654000Y-78931999D01*
G75*
G02*
X164903999Y-78682000I249999J0D01*
G01*
G37*
G36*
G01*
X164903999Y-76632000D02*
X165804001Y-76632000D01*
G75*
G02*
X166054000Y-76881999I0J-249999D01*
G01*
X166054000Y-77532001D01*
G75*
G02*
X165804001Y-77782000I-249999J0D01*
G01*
X164903999Y-77782000D01*
G75*
G02*
X164654000Y-77532001I0J249999D01*
G01*
X164654000Y-76881999D01*
G75*
G02*
X164903999Y-76632000I249999J0D01*
G01*
G37*
%TD*%
%TO.C,R12*%
G36*
G01*
X168205999Y-78682000D02*
X169106001Y-78682000D01*
G75*
G02*
X169356000Y-78931999I0J-249999D01*
G01*
X169356000Y-79582001D01*
G75*
G02*
X169106001Y-79832000I-249999J0D01*
G01*
X168205999Y-79832000D01*
G75*
G02*
X167956000Y-79582001I0J249999D01*
G01*
X167956000Y-78931999D01*
G75*
G02*
X168205999Y-78682000I249999J0D01*
G01*
G37*
G36*
G01*
X168205999Y-76632000D02*
X169106001Y-76632000D01*
G75*
G02*
X169356000Y-76881999I0J-249999D01*
G01*
X169356000Y-77532001D01*
G75*
G02*
X169106001Y-77782000I-249999J0D01*
G01*
X168205999Y-77782000D01*
G75*
G02*
X167956000Y-77532001I0J249999D01*
G01*
X167956000Y-76881999D01*
G75*
G02*
X168205999Y-76632000I249999J0D01*
G01*
G37*
%TD*%
%TO.C,R11*%
G36*
G01*
X171507999Y-78682000D02*
X172408001Y-78682000D01*
G75*
G02*
X172658000Y-78931999I0J-249999D01*
G01*
X172658000Y-79582001D01*
G75*
G02*
X172408001Y-79832000I-249999J0D01*
G01*
X171507999Y-79832000D01*
G75*
G02*
X171258000Y-79582001I0J249999D01*
G01*
X171258000Y-78931999D01*
G75*
G02*
X171507999Y-78682000I249999J0D01*
G01*
G37*
G36*
G01*
X171507999Y-76632000D02*
X172408001Y-76632000D01*
G75*
G02*
X172658000Y-76881999I0J-249999D01*
G01*
X172658000Y-77532001D01*
G75*
G02*
X172408001Y-77782000I-249999J0D01*
G01*
X171507999Y-77782000D01*
G75*
G02*
X171258000Y-77532001I0J249999D01*
G01*
X171258000Y-76881999D01*
G75*
G02*
X171507999Y-76632000I249999J0D01*
G01*
G37*
%TD*%
%TO.C,R10*%
G36*
G01*
X175063999Y-78682000D02*
X175964001Y-78682000D01*
G75*
G02*
X176214000Y-78931999I0J-249999D01*
G01*
X176214000Y-79582001D01*
G75*
G02*
X175964001Y-79832000I-249999J0D01*
G01*
X175063999Y-79832000D01*
G75*
G02*
X174814000Y-79582001I0J249999D01*
G01*
X174814000Y-78931999D01*
G75*
G02*
X175063999Y-78682000I249999J0D01*
G01*
G37*
G36*
G01*
X175063999Y-76632000D02*
X175964001Y-76632000D01*
G75*
G02*
X176214000Y-76881999I0J-249999D01*
G01*
X176214000Y-77532001D01*
G75*
G02*
X175964001Y-77782000I-249999J0D01*
G01*
X175063999Y-77782000D01*
G75*
G02*
X174814000Y-77532001I0J249999D01*
G01*
X174814000Y-76881999D01*
G75*
G02*
X175063999Y-76632000I249999J0D01*
G01*
G37*
%TD*%
%TO.C,R9*%
G36*
G01*
X178365999Y-78682000D02*
X179266001Y-78682000D01*
G75*
G02*
X179516000Y-78931999I0J-249999D01*
G01*
X179516000Y-79582001D01*
G75*
G02*
X179266001Y-79832000I-249999J0D01*
G01*
X178365999Y-79832000D01*
G75*
G02*
X178116000Y-79582001I0J249999D01*
G01*
X178116000Y-78931999D01*
G75*
G02*
X178365999Y-78682000I249999J0D01*
G01*
G37*
G36*
G01*
X178365999Y-76632000D02*
X179266001Y-76632000D01*
G75*
G02*
X179516000Y-76881999I0J-249999D01*
G01*
X179516000Y-77532001D01*
G75*
G02*
X179266001Y-77782000I-249999J0D01*
G01*
X178365999Y-77782000D01*
G75*
G02*
X178116000Y-77532001I0J249999D01*
G01*
X178116000Y-76881999D01*
G75*
G02*
X178365999Y-76632000I249999J0D01*
G01*
G37*
%TD*%
%TO.C,R7*%
G36*
G01*
X143704000Y-102673999D02*
X143704000Y-103574001D01*
G75*
G02*
X143454001Y-103824000I-249999J0D01*
G01*
X142803999Y-103824000D01*
G75*
G02*
X142554000Y-103574001I0J249999D01*
G01*
X142554000Y-102673999D01*
G75*
G02*
X142803999Y-102424000I249999J0D01*
G01*
X143454001Y-102424000D01*
G75*
G02*
X143704000Y-102673999I0J-249999D01*
G01*
G37*
G36*
G01*
X145754000Y-102673999D02*
X145754000Y-103574001D01*
G75*
G02*
X145504001Y-103824000I-249999J0D01*
G01*
X144853999Y-103824000D01*
G75*
G02*
X144604000Y-103574001I0J249999D01*
G01*
X144604000Y-102673999D01*
G75*
G02*
X144853999Y-102424000I249999J0D01*
G01*
X145504001Y-102424000D01*
G75*
G02*
X145754000Y-102673999I0J-249999D01*
G01*
G37*
%TD*%
%TO.C,R6*%
G36*
G01*
X141928001Y-84014000D02*
X141027999Y-84014000D01*
G75*
G02*
X140778000Y-83764001I0J249999D01*
G01*
X140778000Y-83113999D01*
G75*
G02*
X141027999Y-82864000I249999J0D01*
G01*
X141928001Y-82864000D01*
G75*
G02*
X142178000Y-83113999I0J-249999D01*
G01*
X142178000Y-83764001D01*
G75*
G02*
X141928001Y-84014000I-249999J0D01*
G01*
G37*
G36*
G01*
X141928001Y-86064000D02*
X141027999Y-86064000D01*
G75*
G02*
X140778000Y-85814001I0J249999D01*
G01*
X140778000Y-85163999D01*
G75*
G02*
X141027999Y-84914000I249999J0D01*
G01*
X141928001Y-84914000D01*
G75*
G02*
X142178000Y-85163999I0J-249999D01*
G01*
X142178000Y-85814001D01*
G75*
G02*
X141928001Y-86064000I-249999J0D01*
G01*
G37*
%TD*%
D16*
%TO.C,U1*%
X127408000Y-68834000D03*
D17*
X121258000Y-71134000D03*
X121258000Y-68834000D03*
X121258000Y-66534000D03*
%TD*%
%TO.C,FB1*%
G36*
G01*
X113206000Y-78289999D02*
X113206000Y-79190001D01*
G75*
G02*
X112956001Y-79440000I-249999J0D01*
G01*
X112305999Y-79440000D01*
G75*
G02*
X112056000Y-79190001I0J249999D01*
G01*
X112056000Y-78289999D01*
G75*
G02*
X112305999Y-78040000I249999J0D01*
G01*
X112956001Y-78040000D01*
G75*
G02*
X113206000Y-78289999I0J-249999D01*
G01*
G37*
G36*
G01*
X115256000Y-78289999D02*
X115256000Y-79190001D01*
G75*
G02*
X115006001Y-79440000I-249999J0D01*
G01*
X114355999Y-79440000D01*
G75*
G02*
X114106000Y-79190001I0J249999D01*
G01*
X114106000Y-78289999D01*
G75*
G02*
X114355999Y-78040000I249999J0D01*
G01*
X115006001Y-78040000D01*
G75*
G02*
X115256000Y-78289999I0J-249999D01*
G01*
G37*
%TD*%
D18*
%TO.C,X1*%
X112522000Y-110026000D03*
X112522000Y-115526000D03*
%TD*%
%TO.C,R2*%
G36*
G01*
X162493000Y-132911001D02*
X162493000Y-132010999D01*
G75*
G02*
X162742999Y-131761000I249999J0D01*
G01*
X163393001Y-131761000D01*
G75*
G02*
X163643000Y-132010999I0J-249999D01*
G01*
X163643000Y-132911001D01*
G75*
G02*
X163393001Y-133161000I-249999J0D01*
G01*
X162742999Y-133161000D01*
G75*
G02*
X162493000Y-132911001I0J249999D01*
G01*
G37*
G36*
G01*
X160443000Y-132911001D02*
X160443000Y-132010999D01*
G75*
G02*
X160692999Y-131761000I249999J0D01*
G01*
X161343001Y-131761000D01*
G75*
G02*
X161593000Y-132010999I0J-249999D01*
G01*
X161593000Y-132911001D01*
G75*
G02*
X161343001Y-133161000I-249999J0D01*
G01*
X160692999Y-133161000D01*
G75*
G02*
X160443000Y-132911001I0J249999D01*
G01*
G37*
%TD*%
M02*
